<svg width="200" height="200" fill="none" xmlns="http://www.w3.org/2000/svg"><path d="M109.733 159.257c-.125.287-.264.571-.414.852 5.25 2.243 8.548 5.467 8.548 9.045 0 6.757-11.761 12.255-26.217 12.255-13.634 0-24.87-4.891-26.103-11.116a45.51 45.51 0 0 1-1.062-.326c.865 6.932 12.718 12.442 27.165 12.442 15.008 0 27.217-5.946 27.217-13.255 0-3.931-3.533-7.468-9.134-9.897Z" fill="#1B2327"/><path d="M96.385 169.625c.669.811 1.046 1.792.82 2.709-.484 1.962-2.987 2.686-4.043 2.906a16.17 16.17 0 0 1-10.66-1.397.5.5 0 0 0-.452.892 17.161 17.161 0 0 0 6.005 1.766 11.348 11.348 0 0 0-.962 2.307.501.501 0 0 0 .96.279c.274-.942.703-1.867 1.11-2.509 3.392.128 8.2-.711 9.012-4.004.288-1.169-.078-2.339-.791-3.316-.328.126-.662.249-1 .368v-.001Z" fill="#1B2327"/><path d="M122.7 169.236c0-5.415-4.707-10.146-12.13-13.146-.035.36-.089.716-.163 1.07 6.884 2.853 11.293 7.208 11.293 12.077 0 3.3-1.911 6.368-5.18 8.914v4.775a.5.5 0 0 1-1 0v-4.042c-2.143 1.481-4.766 2.759-7.746 3.769v5.377a.5.5 0 0 1-1 0v-5.054c-2.865.889-6.031 1.536-9.396 1.886v4.869a.5.5 0 0 1-1 0v-4.774a56.825 56.825 0 0 1-10.906-.12v4.864a.5.5 0 0 1-1 0v-4.982c-3.81-.487-7.383-1.361-10.534-2.565v4.752a.5.5 0 0 1-1 0v-5.151c-2.971-1.237-5.525-2.779-7.491-4.57v3.979a.5.5 0 0 1-1 0v-4.966c-2.011-2.167-3.069-4.571-3.066-6.982 0-.131.003-.261.01-.391-.33-.139-.654-.281-.973-.427a9.627 9.627 0 0 0-.037.816c-.004 3.193-.151 3.077 0 5.539.607 9.474 14.292 16.904 31.153 16.916h.038c16.801 0 30.471-7.41 31.127-16.878.169-2.342 0-2.439 0-5.553l.001-.002Z" fill="#1B2327"/><path d="M111.03 151.502c.049-.392.074-.787.074-1.185 0-2.323-.863-4.521-2.433-6.509-.033.49-.098.965-.206 1.465 1.062 1.582 1.639 3.279 1.639 5.044 0 5.025-4.308 8.811-8.724 11.172-5.071 2.713-12.436 4.744-21.454 4.741-9.823-.003-18.563-2.503-24.072-6.359a23.15 23.15 0 0 1-.433.857c1.697 1.174 3.673 2.225 5.873 3.121v4.395c-2.881-1.237-5.621-2.992-7.526-4.731-.167.257-.342.522-.528.799 5.457 5.081 15.354 8.438 26.686 8.438 12.885 0 30.357-5.229 31.165-16.89.109-1.578.089-3.028-.062-4.356l.001-.002Zm-48.735 17.152v-4.415c3.144 1.179 6.704 2.053 10.534 2.542 0 4.456-.01 4.41.009 4.512-3.858-.504-7.424-1.412-10.543-2.64v.001Zm22.44 2.887a55.797 55.797 0 0 1-10.951-.132c.066-.145.045.174.045-4.508 3.626.395 7.339.43 10.906.135v4.506-.001Zm10.396-2.03c-2.865.915-6.03 1.577-9.396 1.934v-4.5c3.309-.333 6.476-.952 9.396-1.835v4.401Zm1-.333v-4.384c2.712-.893 5.399-2.092 7.746-3.613 0 4.257-.011 3.981.025 4.091-2.15 1.541-4.781 2.865-7.771 3.907v-.001Zm13.962-13.388c-.225 3.25-2.117 6.245-5.216 8.741v-4.032c2.487-1.79 4.271-3.817 5.275-5.983-.01.415-.028.839-.059 1.274Z" fill="#1B2327"/><path d="M107.051 148.736c-.251.412-.53.817-.834 1.214.005.095.007.19.007.286 0 6.757-11.76 12.254-26.216 12.254-9.725 0-18.231-2.488-22.756-6.174-.11.316-.217.626-.327.936 4.815 3.744 13.362 6.238 23.083 6.238 15.007 0 27.216-5.945 27.216-13.254 0-.507-.059-1.007-.173-1.5ZM61.008 124.36c-6.566 2.226-11.378 5.742-13.273 9.931.324.086.64.184.948.294 1.764-3.84 6.213-7.083 12.307-9.19.007-.293.014-.631.02-1.034l-.002-.001Z" fill="#1B2327"/><path d="m108.191 143.477-.021.339c-.225 3.25-2.117 6.245-5.216 8.741v-4.032c2.054-1.479 3.628-3.119 4.68-4.865a45.28 45.28 0 0 1-1.498.45c-1.669 2.244-4.156 4.058-6.679 5.407-5.071 2.714-12.436 4.744-21.454 4.741-7.288-.002-13.98-1.379-19.199-3.665-.027.33-.063.664-.108 1 .223.096.447.19.675.283v4.395a33.028 33.028 0 0 1-1.55-.713c-.094.309-.194.619-.3.93 5.474 2.678 12.633 4.288 20.482 4.288 12.885 0 30.357-5.229 31.165-16.89.018-.259.032-.514.043-.766-.335.123-.675.242-1.02.357Zm-47.82 13.205v-4.415c3.144 1.179 6.704 2.053 10.534 2.542 0 4.456-.01 4.411.009 4.512-3.858-.504-7.424-1.412-10.543-2.64v.001Zm22.44 2.887a55.797 55.797 0 0 1-10.951-.132c.066-.145.045.175.045-4.508 3.626.395 7.339.43 10.906.135v4.506-.001Zm10.396-2.03c-2.865.915-6.03 1.577-9.396 1.934v-4.5c3.309-.333 6.476-.952 9.396-1.835v4.401Zm1-.333v-4.384c2.712-.893 5.399-2.092 7.746-3.613 0 4.257-.011 3.982.025 4.091-2.15 1.541-4.781 2.865-7.771 3.907v-.001Z" fill="#1B2327"/><path d="M79.222 144.374a16.175 16.175 0 0 1-10.282-1.535.5.5 0 1 0-.459.888 17.15 17.15 0 0 0 6.041 1.808 11.15 11.15 0 0 0-.995 2.372.5.5 0 0 0 .48.639c.696 0 .311-.786 1.587-2.864a.441.441 0 0 0 .033-.065c1.752.072 3.878-.115 5.633-.771a47.15 47.15 0 0 1-2.039-.473l.001.001ZM60.961 127.97c-4.985 1.97-8.517 4.78-9.679 7.984.285.21.558.436.818.677.873-3.048 4.151-5.745 8.911-7.658a39.03 39.03 0 0 1-.05-1.003Z" fill="#1B2327"/><path d="M99.23 145.5c-4.776 3.04-12.476 5.018-21.146 5.018-7.694 0-14.625-1.557-19.425-4.033.062.368.11.743.145 1.125 4.932 2.413 11.754 3.908 19.28 3.908 9.793 0 18.394-2.532 23.189-6.322-.672.114-1.354.216-2.045.305l.001-.001ZM116.123 128.485c-3.875 4.509-13.324 7.701-24.34 7.701-14.455 0-26.216-5.497-26.216-12.254 0-1.125.326-2.215.937-3.25-.19-.318-.365-.64-.524-.966-.916 1.325-1.412 2.743-1.412 4.217 0 7.309 12.21 13.254 27.216 13.254 12.445 0 22.966-4.088 26.196-9.653-.596.332-1.215.649-1.856.952l-.001-.001Z" fill="#1B2327"/><path d="M87.837 131.967a11.17 11.17 0 0 0-.61 1.617.501.501 0 0 0 .96.279c.178-.615.423-1.223.685-1.75a54.942 54.942 0 0 1-1.036-.147l.001.001Z" fill="#1B2327"/><path d="M122.834 124.044c-.335.316-.686.626-1.055.929-.332 2.935-2.176 5.657-5.125 7.954v4.775a.5.5 0 0 1-1 0v-4.042c-2.143 1.481-4.766 2.759-7.746 3.768v5.377a.5.5 0 0 1-1 0v-5.053c-2.865.889-6.031 1.536-9.396 1.886v4.868a.5.5 0 0 1-1 0v-4.774a56.825 56.825 0 0 1-10.906-.12v4.864a.5.5 0 0 1-1 0v-4.982c-3.81-.487-7.383-1.361-10.534-2.565v4.752a.5.5 0 0 1-1 0v-5.151c-2.97-1.237-5.525-2.779-7.49-4.57v3.979a.5.5 0 0 1-1 0v-4.966c-2.012-2.167-3.07-4.571-3.067-6.982.004-2.686 1.256-5.191 3.478-7.372a10.47 10.47 0 0 1-.122-1.2c-2.77 2.484-4.353 5.41-4.357 8.57-.004 3.193-.15 3.076 0 5.539.607 9.474 14.292 16.904 31.153 16.916h.038c16.801 0 30.471-7.41 31.127-16.878.168-2.334.002-2.439 0-5.522h.002Z" fill="#1B2327"/><path d="M101.45 112.334c.092.387.103.779.009 1.161-.484 1.962-2.987 2.686-4.043 2.906a16.173 16.173 0 0 1-8.173-.387c-.69.106-1.39.199-2.1.278a17.144 17.144 0 0 0 5.166 1.368 11.348 11.348 0 0 0-.962 2.307.501.501 0 0 0 .96.279c.273-.942.703-1.867 1.111-2.509 3.391.128 8.2-.711 9.011-4.004a3.538 3.538 0 0 0-.059-1.87c-.301.16-.608.316-.921.47l.001.001Z" fill="#1B2327"/><path d="M126.954 110.398c0-4.448-3.177-8.436-8.428-11.381-.392.188-.792.37-1.201.548 5.337 2.802 8.629 6.626 8.629 10.833 0 3.3-1.911 6.368-5.18 8.914v4.775a.5.5 0 0 1-1 0v-4.042c-2.143 1.481-4.766 2.759-7.746 3.768v5.377a.5.5 0 0 1-1 0v-5.053c-2.865.889-6.031 1.536-9.396 1.886v4.869a.5.5 0 0 1-1 0v-4.774a56.821 56.821 0 0 1-10.906-.12v4.864a.5.5 0 0 1-1 0v-4.982c-3.81-.487-7.383-1.361-10.534-2.565v4.752a.5.5 0 0 1-1 0v-5.151c-2.97-1.237-5.525-2.779-7.49-4.57v3.979a.5.5 0 0 1-1 0v-4.967a12.91 12.91 0 0 1-1.905-2.617 42.448 42.448 0 0 1-2.229-.703c0 .479.016 1.022.068 1.875.607 9.474 14.292 16.904 31.153 16.916h.038c16.801 0 30.471-7.41 31.127-16.878.169-2.342 0-2.44 0-5.553Z" fill="#1B2327"/><path d="M114.504 100.648a37.93 37.93 0 0 1-1.371.438c5.505 2.248 8.988 5.552 8.988 9.229 0 6.757-11.761 12.254-26.217 12.254-10.055 0-18.805-2.66-23.202-6.553a50.64 50.64 0 0 1-1.628-.276c4.265 4.611 13.79 7.829 24.83 7.829 15.008 0 27.217-5.946 27.217-13.254 0-3.809-3.317-7.248-8.617-9.667ZM99.655 103.116c-4.732 2.17-11.213 3.511-18.35 3.511-14.456 0-26.217-5.498-26.217-12.254 0-4.44 5.081-8.338 12.67-10.488.01-.349.025-.688.048-1.019-8.189 2.288-13.718 6.588-13.718 11.506 0 7.309 12.21 13.254 27.216 13.254 8.224 0 15.607-1.786 20.602-4.602-.741.044-1.492.076-2.25.092Z" fill="#1B2327"/><path d="M82.208 100.574a16.171 16.171 0 0 1-10.052-1.514.5.5 0 0 0-.453.892 17.165 17.165 0 0 0 6.005 1.766 11.348 11.348 0 0 0-.962 2.307.501.501 0 0 0 .96.279c.273-.942.703-1.867 1.111-2.509 1.615.062 3.551-.097 5.224-.635a40.564 40.564 0 0 1-1.833-.586Z" fill="#1B2327"/><path d="M107.293 102.427c-.353.32-.726.634-1.119.939v4.776a.5.5 0 0 1-1 0V104.1c-2.143 1.481-4.766 2.759-7.746 3.768v5.378a.5.5 0 0 1-1 0v-5.054c-2.865.889-6.031 1.536-9.396 1.886v4.869a.5.5 0 0 1-1 0v-4.774a56.838 56.838 0 0 1-10.906-.12v4.864a.5.5 0 0 1-1 0v-4.982c-3.81-.487-7.383-1.361-10.534-2.565v4.752a.5.5 0 0 1-1 0v-5.151c-2.971-1.237-5.525-2.779-7.49-4.57v3.979a.5.5 0 0 1-1 0v-4.967c-2.012-2.167-3.07-4.571-3.067-6.982.008-5.831 5.902-10.812 14.83-13.466-.261-.26-.511-.524-.748-.792-9.09 2.844-15.074 8.107-15.082 14.257-.004 3.193-.151 3.077 0 5.539.607 9.474 14.292 16.904 31.153 16.916h.038c15.988 0 29.14-6.71 30.941-15.519-1.55.427-3.178.783-4.874 1.061Z" fill="#1B2327"/><path d="M129.567 82.38c.049-.391.074-.786.074-1.184 0-3.813-2.325-7.286-6.284-10.056.004.415-.004.84-.022 1.28 3.346 2.5 5.306 5.523 5.306 8.775 0 5.025-4.308 8.81-8.724 11.172-5.071 2.713-12.436 4.744-21.454 4.74-15.316-.004-28.002-6.08-29.907-13.903-.42-.296-.822-.6-1.206-.911-.125 1.347-.138 2.817-.04 4.416.608 9.486 14.293 16.916 31.153 16.916 12.885 0 30.357-5.23 31.165-16.89.109-1.578.089-3.028-.062-4.356l.001.002ZM71.512 93.554c-1.908-2.08-3.044-4.417-3.204-6.904-.028-.46-.047-.91-.056-1.347.716 1.543 1.823 3.005 3.26 4.349v3.902Zm8.32 5.569c-2.924-1.256-5.411-2.803-7.32-4.567V90.52c1.982 1.619 4.462 3.043 7.32 4.207v4.394Zm1 .41v-4.414c3.144 1.179 6.704 2.053 10.534 2.542 0 4.456-.01 4.411.009 4.512-3.858-.504-7.424-1.411-10.543-2.64Zm22.44 2.888a55.798 55.798 0 0 1-10.951-.132c.066-.145.045.175.045-4.508 3.626.395 7.339.43 10.906.135v4.505Zm10.396-2.03c-2.865.915-6.03 1.577-9.396 1.934v-4.5c3.309-.333 6.476-.952 9.396-1.835v4.401Zm1-.333v-4.384c2.712-.893 5.399-2.092 7.746-3.613 0 4.257-.011 3.98.025 4.09-2.15 1.542-4.781 2.865-7.771 3.907Zm13.962-13.388c-.225 3.25-2.117 6.245-5.216 8.74v-4.031c2.487-1.79 4.271-3.817 5.275-5.983-.01.415-.029.839-.06 1.274h.001Z" fill="#1B2327"/><path d="M122.939 75.24c-.095.338-.208.673-.338 1.005 1.389 1.494 2.16 3.141 2.16 4.87 0 6.757-11.761 12.254-26.216 12.254-10.197 0-19.052-2.735-23.386-6.718a35.68 35.68 0 0 1-2.1-.883c3.877 5.021 13.838 8.602 25.486 8.602 15.007 0 27.216-5.945 27.216-13.254 0-2.108-1.016-4.104-2.823-5.875h.001Z" fill="#1B2327"/><path d="M94.386 89.618c-.153.373-.286.752-.398 1.138a.5.5 0 0 0 .48.64c.564 0 .418-.518 1.024-1.823-.367.02-.735.033-1.106.044v.001Z" fill="#1B2327"/><path d="M123.728 68.9c.049-.392.074-.787.074-1.185 0-2.135-.729-4.163-2.065-6.02.032.622.037 1.275.016 1.96.684 1.294 1.05 2.655 1.05 4.06 0 5.025-4.308 8.811-8.724 11.172-5.071 2.713-12.436 4.744-21.454 4.741-14.169-.004-26.087-5.205-29.301-12.177a13.663 13.663 0 0 1-1.808-2.685c-.129 1.36-.144 2.845-.045 4.463.608 9.486 14.293 16.916 31.153 16.916 12.885 0 30.357-5.229 31.165-16.89.109-1.578.09-3.028-.062-4.356l.001.001ZM65.673 80.072c-1.908-2.079-3.044-4.417-3.204-6.904-.028-.46-.047-.91-.056-1.347.716 1.543 1.823 3.005 3.26 4.35v3.901Zm8.32 5.57c-2.924-1.257-5.411-2.804-7.32-4.568V77.04c1.982 1.62 4.462 3.043 7.32 4.207v4.394Zm1 .41v-4.415c3.145 1.18 6.704 2.053 10.534 2.542 0 4.456-.01 4.41.009 4.512-3.858-.504-7.425-1.41-10.543-2.639Zm22.44 2.887a55.797 55.797 0 0 1-10.951-.132c.066-.145.045.174.045-4.508 3.626.395 7.339.43 10.906.135v4.505Zm10.396-2.03c-2.865.915-6.03 1.577-9.396 1.934v-4.5c3.309-.333 6.476-.952 9.396-1.835v4.402Zm1-.333v-4.384c2.712-.893 5.399-2.092 7.746-3.613 0 4.257-.011 3.981.025 4.091-2.15 1.541-4.781 2.865-7.771 3.907Zm13.962-13.388c-.225 3.25-2.117 6.245-5.216 8.741v-4.032c2.487-1.79 4.271-3.817 5.275-5.983-.01.415-.028.84-.059 1.274Z" fill="#1B2327"/><path d="m114.181 52.113-.019.301a9.578 9.578 0 0 1-.091.813c2.076 1.754 3.26 3.77 3.26 5.913 0 6.757-11.761 12.254-26.216 12.254-7.33 0-13.965-1.413-18.727-3.687a45.321 45.321 0 0 1-3.412-.866c4.942 3.36 13.024 5.552 22.138 5.552 15.007 0 27.216-5.945 27.216-13.254 0-2.58-1.521-4.99-4.149-7.028v.002Z" fill="#1B2327"/><path d="M122.136 60.408c.049-.392.074-.787.074-1.185 0-4.366-3.047-8.286-8.105-11.214a2.642 2.642 0 0 0-.011.088c.045.385.079.783.102 1.194 4.378 2.696 7.015 6.159 7.015 9.932 0 5.025-4.308 8.81-8.724 11.172-5.071 2.713-12.436 4.744-21.454 4.74-13.302-.003-24.62-4.587-28.614-10.917a27.41 27.41 0 0 1-2.604-1.551c0 .665.02 1.354.065 2.07.608 9.487 14.293 16.917 31.153 16.917 12.885 0 30.357-5.23 31.165-16.89.109-1.578.09-3.028-.062-4.356ZM64.081 71.58c-1.908-2.08-3.044-4.417-3.204-6.904-.028-.46-.047-.91-.056-1.347.716 1.543 1.823 3.005 3.26 4.348v3.903Zm8.32 5.569c-2.924-1.256-5.411-2.803-7.32-4.567v-4.034c1.982 1.619 4.462 3.043 7.32 4.207v4.394Zm1 .41v-4.414c3.145 1.179 6.704 2.053 10.534 2.542 0 4.456-.01 4.41.009 4.512-3.858-.504-7.425-1.411-10.543-2.64Zm22.44 2.888a55.797 55.797 0 0 1-10.951-.132c.066-.145.045.174.045-4.508 3.626.395 7.339.43 10.906.135v4.505Zm10.396-2.03c-2.865.915-6.03 1.577-9.396 1.934v-4.5c3.309-.333 6.476-.952 9.396-1.835v4.4Zm1-.333V73.7c2.712-.893 5.399-2.093 7.746-3.613 0 4.257-.011 3.98.025 4.09-2.15 1.542-4.781 2.865-7.771 3.907Zm13.962-13.388c-.225 3.25-2.117 6.245-5.216 8.74v-4.031c2.487-1.79 4.271-3.817 5.275-5.983-.01.415-.028.839-.059 1.274Z" fill="#1B2327"/><path d="M114.599 48.094c.049-.392.074-.787.074-1.185 0-9.282-13.776-16.553-31.363-16.553-17.365 0-30.969 7.255-30.969 16.518 0 .334.019.667.054.996-.137 1.384-.155 2.9-.053 4.553.608 9.486 14.293 16.916 31.153 16.916 12.885 0 30.357-5.23 31.165-16.89.109-1.578.089-3.028-.062-4.356l.001.001ZM83.31 31.357c16.742 0 30.363 6.977 30.363 15.553 0 5.025-4.308 8.81-8.724 11.172-5.071 2.713-12.436 4.744-21.454 4.741-16.627-.005-30.154-7.165-30.154-15.948 0-8.702 13.164-15.518 29.969-15.518Zm15.391 30.344v4.402c-2.865.915-6.03 1.577-9.396 1.934v-4.5c3.309-.333 6.476-.953 9.396-1.836Zm1-.316c2.712-.893 5.399-2.092 7.746-3.613 0 4.257-.011 3.982.025 4.091-2.15 1.541-4.781 2.865-7.771 3.907v-4.385Zm-42.157-5.15c1.982 1.618 4.462 3.042 7.32 4.206v4.395c-2.924-1.256-5.411-2.803-7.32-4.567v-4.035Zm8.32 4.597c3.144 1.18 6.704 2.053 10.534 2.542 0 4.456-.01 4.41.009 4.512-3.858-.504-7.424-1.412-10.543-2.64v-4.414Zm-12.523-8.47c-.028-.46-.047-.91-.056-1.347.716 1.543 1.823 3.005 3.26 4.348v3.903c-1.908-2.079-3.044-4.417-3.204-6.904Zm24.013 15.64c.066-.146.045.174.045-4.509 3.626.395 7.339.43 10.906.135v4.506a55.796 55.796 0 0 1-10.951-.133Zm36.309-15.62c-.225 3.25-2.117 6.244-5.216 8.74V57.09c2.487-1.79 4.271-3.817 5.275-5.983-.01.415-.028.84-.059 1.274Z" fill="#1B2327"/><path d="M83.578 60.082c15.007 0 27.216-5.945 27.216-13.254 0-7.309-12.21-13.254-27.216-13.254-15.007 0-27.217 5.945-27.217 13.254 0 7.31 12.209 13.254 27.217 13.254Zm0-25.508c14.455 0 26.216 5.497 26.216 12.254S98.033 59.082 83.578 59.082c-14.455 0-26.217-5.497-26.217-12.254s11.76-12.254 26.217-12.254Z" fill="#1B2327"/><path d="M73.974 52.29a17.15 17.15 0 0 0 6.041 1.809 11.15 11.15 0 0 0-.995 2.372.5.5 0 0 0 .48.639c.696 0 .311-.786 1.587-2.864a.441.441 0 0 0 .033-.065c3.383.138 8.16-.685 8.971-3.992.557-2.253-1.405-4.634-3.587-5.443-1.858-.69-6.266-.111-7.08-1.685a1.291 1.291 0 0 1-.019-1.132c.244-.405.587-.748.992-.992 1.497-.905 3.213-1.395 5.044-1.422a4.83 4.83 0 0 1 3.485.705.5.5 0 0 0 .545-.84 5.91 5.91 0 0 0-2.26-.873 11.4 11.4 0 0 1 .69-1.674.5.5 0 1 0-.891-.453 12.457 12.457 0 0 0-.824 2.057 5.35 5.35 0 0 0-.839.085c-3.341.037-8.292 2.044-6.815 4.993 1.168 2.254 5.831 1.5 7.624 2.167 1.74.646 3.386 2.557 2.964 4.267-.479 1.953-2.989 2.69-4.041 2.917a16.161 16.161 0 0 1-10.646-1.464.501.501 0 0 0-.459.889ZM173.166 46.158c.239-.315.459-.644.658-.988 4.652-8.032-3.626-21.228-18.845-30.042-15.027-8.703-30.435-9.24-35.077-1.226a9.052 9.052 0 0 0-.452.89c-.812 1.128-1.587 2.431-2.328 3.913-4.227 8.514 3.891 21.801 18.481 30.251 11.15 6.457 28.891 10.688 35.433 1.003.886-1.31 1.595-2.576 2.13-3.8Zm-18.689-30.164c14.488 8.39 22.779 21.254 18.481 28.675-2.518 4.35-8.143 5.465-13.148 5.296-5.748-.193-13.139-2.127-20.941-6.649-14.386-8.337-22.504-21.312-18.102-28.912 4.361-7.53 19.168-6.832 33.71 1.59Zm-1.888 33.972-2.206 3.81c-2.937-.645-6.008-1.658-9.1-3.037l2.255-3.895c3.031 1.37 6.081 2.422 9.051 3.122Zm1.024.228c2.794.586 5.72.895 8.514.755-2.133 3.684-2.005 3.44-2.029 3.552-2.633.256-5.573.084-8.682-.514l2.197-3.793ZM119.714 24.61c.904 2.394 2.336 4.87 4.226 7.31l-2.202 3.802c-1.901-2.552-3.278-5.138-4.045-7.62l2.021-3.492Zm4.895 8.15c2.13 2.595 4.773 5.136 7.842 7.478-2.233 3.856-2.219 3.811-2.254 3.91-3.086-2.37-5.717-4.943-7.801-7.569l2.213-3.82Zm-6.592-13.607c.206-.413.415-.81.626-1.194-.153 1.694.072 3.514.642 5.397l-1.956 3.378c-.609-2.755-.421-5.349.688-7.58Zm12.942 25.568c.129-.092-.049.173 2.298-3.879a57.667 57.667 0 0 0 9.37 5.582l-2.258 3.9a55.738 55.738 0 0 1-9.41-5.603Zm39.248 4.68c-1.824 2.7-4.962 4.343-8.894 4.95l2.021-3.489c3.049-.303 5.609-1.163 7.563-2.534-.216.354-.446.711-.69 1.073Z" fill="#1B2327"/><path d="M140.313 40.986c12.986 7.521 26.531 8.494 30.194 2.17 3.663-6.325-3.923-17.588-16.909-25.109-12.987-7.52-26.532-8.495-30.195-2.17-3.663 6.325 3.923 17.588 16.91 25.11Zm12.783-22.073c12.509 7.244 19.931 17.895 16.545 23.742-3.386 5.847-16.318 4.71-28.827-2.534-12.51-7.245-19.932-17.895-16.546-23.743 3.386-5.847 16.318-4.709 28.828 2.535Z" fill="#1B2327"/><path d="M135.907 29.432a17.145 17.145 0 0 0 4.322 4.592c-.743.439-1.431.96-2.05 1.554a.5.5 0 0 0 .095.794c.602.349.663-.524 2.808-1.683a.428.428 0 0 0 .061-.04c2.858 1.815 7.405 3.496 9.763 1.04 1.611-1.67 1.106-4.713-.376-6.507-1.262-1.527-5.366-3.236-5.283-5.006.024-.408.242-.785.551-.99a2.924 2.924 0 0 1 1.356-.36c1.749-.033 3.479.403 5.077 1.297a4.833 4.833 0 0 1 2.663 2.357.5.5 0 1 0 .892-.453 5.905 5.905 0 0 0-1.518-1.89c.448-.403.93-.774 1.436-1.102a.5.5 0 1 0-.544-.84 12.4 12.4 0 0 0-1.744 1.368 5.307 5.307 0 0 0-.769-.347c-2.91-1.642-8.2-2.387-8.4.905-.119 2.536 4.293 4.22 5.511 5.696 1.182 1.43 1.649 3.909.426 5.178-1.393 1.449-3.935.83-4.959.499a16.16 16.16 0 0 1-8.479-6.603.5.5 0 0 0-.843.539l.004.002ZM191.735 117.769c.317-.236.62-.491.907-.766 6.702-6.422 2.42-21.4-9.748-34.097-12.014-12.538-26.665-17.34-33.353-10.932a9.556 9.556 0 0 0-.682.728c-1.094.858-2.2 1.894-3.324 3.112-6.428 7.002-2.325 22.024 9.34 34.197 8.915 9.303 24.779 18.3 33.757 10.816 1.215-1.013 2.248-2.03 3.103-3.058Zm-9.563-34.171c11.583 12.088 15.97 26.75 9.778 32.683-3.628 3.477-9.342 2.985-14.102 1.431-5.467-1.784-12.029-5.697-18.266-12.21-11.5-12.009-15.69-26.73-9.348-32.806 6.283-6.02 20.312-1.232 31.939 10.902h-.001Zm-11.261 32.107-3.178 3.046c-2.642-1.435-5.31-3.263-7.897-5.447l3.249-3.114c2.53 2.159 5.168 4.017 7.826 5.515Zm.92.503c2.521 1.34 5.246 2.45 7.968 3.093-3.074 2.945-2.883 2.747-2.937 2.848-2.6-.486-5.377-1.47-8.197-2.908l3.166-3.033Zm-25.448-34.002c.202 2.551.89 5.327 2.027 8.196l-3.173 3.04c-1.116-2.98-1.72-5.846-1.767-8.445l2.913-2.791Zm2.436 9.188c1.324 3.086 3.156 6.261 5.453 9.365-3.217 3.083-3.192 3.044-3.252 3.128-2.305-3.134-4.118-6.337-5.388-9.438l3.187-3.055Zm-2.549-14.902c.313-.34.624-.663.934-.973-.619 1.585-.908 3.395-.884 5.362l-2.818 2.7c.181-2.816 1.083-5.254 2.769-7.09h-.001Zm5.322 28.158c.15-.053-.095.153 3.286-3.087a57.685 57.685 0 0 0 7.448 7.968l-3.253 3.117a55.8 55.8 0 0 1-7.481-7.998Zm36.399 15.409c-2.503 2.086-5.974 2.792-9.92 2.282l2.911-2.79c3.013.557 5.711.443 7.97-.33-.306.28-.626.558-.961.838Z" fill="#1B2327"/><path d="M161.617 103.665c10.383 10.835 23.122 15.537 28.399 10.48 5.277-5.057 1.123-17.985-9.26-28.82-10.383-10.836-23.123-15.538-28.4-10.481-5.277 5.057-1.123 17.985 9.261 28.821Zm18.417-17.648c10.001 10.437 14.169 22.732 9.29 27.407-4.879 4.675-16.984-.013-26.986-10.45-10.002-10.438-14.17-22.732-9.291-27.407 4.879-4.675 16.984.013 26.986 10.451l.001-.001Z" fill="#1B2327"/><path d="M160.598 91.341a17.141 17.141 0 0 0 2.874 5.612c-.835.215-1.641.524-2.401.922a.5.5 0 0 0-.129.79c.481.501.783-.32 3.166-.837.024-.005.047-.013.07-.02 2.241 2.537 6.141 5.417 9.089 3.714 2.012-1.157 2.373-4.22 1.449-6.356-.788-1.818-4.255-4.6-3.682-6.277.136-.385.451-.687.804-.796a2.921 2.921 0 0 1 1.403.03c1.689.455 3.23 1.355 4.516 2.658a4.829 4.829 0 0 1 1.902 3.004.5.5 0 0 0 .983-.187 5.898 5.898 0 0 0-.933-2.236 11.4 11.4 0 0 1 1.686-.66.499.499 0 1 0-.289-.956c-.708.214-1.398.493-2.055.828a5.393 5.393 0 0 0-.642-.547c-2.339-2.387-7.213-4.573-8.32-1.467-.82 2.403 2.95 5.25 3.71 7.004.738 1.703.497 4.213-1.03 5.092-1.742 1.005-4.011-.297-4.902-.9a16.163 16.163 0 0 1-6.309-8.7.502.502 0 0 0-.96.283v.002ZM39.042 167.706c-11.018 10.189-24.018 14.113-28.98 8.747s-.035-18.02 10.982-28.209c11.018-10.19 24.019-14.114 28.981-8.748 4.962 5.366.036 18.02-10.983 28.21Zm-17.319-18.728c-10.613 9.814-15.515 21.835-10.927 26.796 4.588 4.961 16.955 1.012 27.567-8.802 10.613-9.815 15.515-21.836 10.928-26.797-4.588-4.961-16.955-1.012-27.568 8.803Z" fill="#1B2327"/><path d="M30.828 154.492c-1.839.746-4.677 4.174-6.348 3.57-.9-.328-.996-1.42-.762-2.261.762-2.644 3.255-5.88 5.772-6.301a.5.5 0 0 0-.164-.986c-.778.13-1.532.463-2.237.933a11.107 11.107 0 0 1-.648-1.736.5.5 0 0 0-.963.268c.2.719.47 1.419.8 2.086-1.68 1.442-2.987 3.609-3.523 5.465-.394 1.426-.006 2.966 1.384 3.473 2.39.862 5.293-2.865 7.065-3.583 1.722-.698 4.23-.411 5.076 1.119.977 1.77-.37 4-.995 4.879a16.174 16.174 0 0 1-8.775 6.211.5.5 0 1 0 .273.962 17.155 17.155 0 0 0 5.608-2.781c.2.81.486 1.598.86 2.347a.5.5 0 0 0 .895-.447c-.439-.877-.752-1.848-.888-2.596 2.577-2.208 5.538-6.089 3.897-9.058-1.15-2.084-4.18-2.435-6.327-1.564Z" fill="#1B2327"/><path d="M56.664 141.031c-1.466-1.834-1.656-1.792-3.769-4.078-6.289-6.801-21.337-2.782-34.257 9.15l-.032.029C5.886 157.896.842 172.437 7.124 179.248c2.165 2.347 1.978 2.361 3.762 4.066 6.878 6.543 21.97 2.707 34.357-8.732l.028-.026c12.335-11.407 17.34-26.128 11.393-33.525Zm.253 10.847-2.744-2.968c-.568 2.543-1.626 5.262-3.129 8.026l3.651 3.948a.5.5 0 1 1-.735.679l-3.43-3.71c-1.5 2.598-3.386 5.222-5.619 7.764l3.306 3.575a.5.5 0 1 1-.735.679l-3.24-3.505a57.043 57.043 0 0 1-8.09 7.316l3.303 3.571a.5.5 0 1 1-.735.679l-3.383-3.658c-3.128 2.229-6.345 4.014-9.475 5.27l3.227 3.489a.5.5 0 0 1-.735.679l-3.497-3.782c-3.02 1.109-5.943 1.711-8.603 1.731l2.702 2.922a.5.5 0 1 1-.735.679l-3.372-3.646c-2.948-.226-5.357-1.272-6.992-3.044-5.903-6.4-.885-20.319 11.425-31.704l.032-.029c12.3-11.359 27.033-15.488 32.844-9.205 2.24 2.422 2.921 5.973 2.25 10.061l3.241 3.505a.5.5 0 1 1-.735.68l.003-.002Z" fill="#1B2327"/></svg>