<svg width="200" height="200" fill="none" xmlns="http://www.w3.org/2000/svg"><path d="M136.271 52.478h-59.28a.5.5 0 0 1 0-1h59.28a.5.5 0 0 1 0 1ZM103.789 43.703 92.382 21.821l-4.606 9.605a.5.5 0 0 1-.831.108l-2.308-2.7c-4 7.164-3.711 6.811-4.05 6.867-.317.056-.164.1-2.934-2.362a.5.5 0 1 1 .664-.747l2.055 1.828 3.74-6.703a.5.5 0 0 1 .817-.08l2.275 2.663 4.707-9.813a.5.5 0 0 1 .895-.015L104.184 42.3l6.141-14.532a.5.5 0 0 1 .901-.043l3.453 6.404 1.183-4.3a.5.5 0 0 1 .897-.146l1.324 1.97 1.931-.434a.5.5 0 0 1 .556.262l2.019 3.99 4.13-10.945a.5.5 0 0 1 .905-.066l3.726 6.721 1.172-3.873c.128-.425.73-.496.932-.067l3.271 7.004a.5.5 0 1 1-.906.423l-2.718-5.82-1.136 3.753a.5.5 0 0 1-.916.098l-3.774-6.81-4.15 10.998c-.148.39-.706.455-.914.05l-2.355-4.658-1.885.423a.499.499 0 0 1-.524-.209l-.906-1.349-1.225 4.45a.501.501 0 0 1-.923.105l-3.55-6.583-6.147 14.55a.5.5 0 0 1-.904.037l-.003.001ZM123.761 91.303a56.104 56.104 0 0 1-.503-1.05H98.011c-.165.34-.328.674-.49 1h25.747c.169 0 .333.018.493.05ZM125.578 94.722a2.508 2.508 0 0 1-2.309 1.53H94.877a88.88 88.88 0 0 1-.573 1h28.965a3.505 3.505 0 0 0 2.896-1.528 59.349 59.349 0 0 1-.586-1.001l-.001-.001ZM112.751 71.136a.5.5 0 0 0-.698-.11c-1.832 1.333-4.348 1.125-6.075.732a4.486 4.486 0 0 0-.571-.168c1.366-1.552 1.595-3.962 1.977-6.231a71.097 71.097 0 0 0 4.666-.519.502.502 0 0 0 .423-.567.507.507 0 0 0-.567-.423 69.774 69.774 0 0 1-4.347.492c.321-1.848.678-3.765 1.083-5.805.129-.65-.854-.845-.98-.194a248.04 248.04 0 0 0-1.13 6.076c-.829.055-1.659.095-2.486.121-.637.019-.661 1.01.031 1 .76-.011 1.521-.06 2.282-.107-.408 2.436-.605 4.778-2.312 6.065a4.486 4.486 0 0 0-1.176.262c-.743.274-.149 1.565 1.025 1.007.167-.086.329-.18.484-.282.408-.003.876.072 1.314.231 2.366.543 4.992.544 6.947-.88a.5.5 0 0 0 .11-.698v-.002ZM93.157 64.89a10.844 10.844 0 0 0-3.21-.799 2.785 2.785 0 0 1-2.135-1.351 2.002 2.002 0 0 1 1.194-2.381 4.136 4.136 0 0 1 3.257.289.5.5 0 0 0 .477-.88 5.115 5.115 0 0 0-2.298-.612l-.09-1.148a.513.513 0 0 0-.535-.46.5.5 0 0 0-.46.537l.088 1.14a4.514 4.514 0 0 0-.778.193c-1.481.535-2.241 2.145-1.801 3.657a.554.554 0 0 0 .045.106 3.787 3.787 0 0 0 2.943 1.905 9.918 9.918 0 0 1 2.859.698c1.932 1.112 1.812 3.905-.081 4.888-2.32 1.031-5.197-.272-5.487-1.962a.5.5 0 0 0-.986.169c.317 1.842 2.275 2.921 4.177 3.128l.094 1.454a.5.5 0 1 0 .998-.064l-.09-1.378c4.304-.365 4.94-5.341 1.818-7.13v.001ZM129.046 69.282a.5.5 0 0 0-.702-.081 3.828 3.828 0 0 1-1.695.77c.164-3.11.228-6.244.192-9.365.258.042.513.116.76.223a.5.5 0 0 0 .396-.918 4.21 4.21 0 0 0-1.172-.318c-.01-.556-.023-1.111-.04-1.665-.021-.67-1.019-.626-1 .03.016.542.029 1.085.039 1.629a4.178 4.178 0 0 0-2.421 1.123c-4.196 3.409-2.547 9.919 2.184 10.307-.035.574-.073 1.146-.114 1.718-.047.664.949.73.998.072.044-.604.084-1.208.12-1.814a4.81 4.81 0 0 0 2.373-1.01.498.498 0 0 0 .081-.701h.001Zm-4.982-7.822c.5-.476 1.123-.77 1.777-.864a145.07 145.07 0 0 1-.195 9.423c-3.758-.327-5.15-5.653-1.582-8.56ZM138.108 110.101a61.039 61.039 0 0 1-2.611-2.447c-.1 3.804-.213 7.627-.339 11.468a3.357 3.357 0 0 1-3.097 3.321 394.094 394.094 0 0 1-45.65.314 6.739 6.739 0 0 1-.302.509 21.097 21.097 0 0 1-2.749 3.533c17.022.883 34.237.793 51.219-.272.356-.02.701-.079 1.03-.172a33.004 33.004 0 0 1 2.499-16.252v-.002Z" fill="#1B2327"/><path d="M77.392 93.496c-.418-27.682-.24-53.02.539-76.888.022-1.742 1.4-3.196 3.13-3.31 17.007-.807 34.263-.726 50.938 0a3.379 3.379 0 0 1 3.159 3.299c.869 23.365 1.102 48.08.701 73.778a53.929 53.929 0 0 1 3.835 2.674c.462-27.452.216-53.817-.739-78.686-.059-1.546-1.513-4.408-2.702-5.95a6.173 6.173 0 0 0-4.557-2.262 504.196 504.196 0 0 0-50.633 0c-4.417.273-6.713 5.17-6.814 8.214-.834 24.757-1.04 50.894-.613 79.272a4.805 4.805 0 0 1 3.756-.141ZM76.977 9.62a5.288 5.288 0 0 1 4.144-2.47 503.988 503.988 0 0 1 50.533 0 5.168 5.168 0 0 1 3.817 1.886c.335.435.641.889.917 1.358a4.576 4.576 0 0 0-1.889-.487c-19.706-.766-38.49-.766-55.83 0a4.572 4.572 0 0 0-2.223.685c.164-.332.34-.655.53-.972ZM123.269 103.256H90.521c-.229.341-.455.673-.677 1h33.425a2.505 2.505 0 0 1 2.505 2.5c0 1.379-1.124 2.5-2.505 2.5H89.751a2.507 2.507 0 0 1-2.285-1.479c-.207.315-.41.63-.611.947a3.507 3.507 0 0 0 2.896 1.531h33.518a3.506 3.506 0 0 0 3.505-3.5 3.505 3.505 0 0 0-3.505-3.499Z" fill="#1B2327"/><path d="M89.75 87.741h.47c.35-.338.705-.67 1.064-1H89.75a2.505 2.505 0 0 1-2.505-2.499 2.505 2.505 0 0 1 2.505-2.499h33.518a2.505 2.505 0 0 1 2.505 2.5c0 .386-.089.752-.247 1.08.286.074.566.166.827.266l.128.05c.188-.428.292-.9.292-1.396a3.505 3.505 0 0 0-3.505-3.499H89.751a3.505 3.505 0 0 0-3.505 3.5 3.504 3.504 0 0 0 3.505 3.497Z" fill="#1B2327"/><path d="M122.218 87.74a3.255 3.255 0 0 1-.001-1H99.569a9.215 9.215 0 0 1-.376 1h23.025Z" fill="#1B2327"/><path d="M99.791 83.76a3.329 3.329 0 0 0-3.507-1.111 7.972 7.972 0 0 0-3.02 1.729c-5.14 4.139-9.394 9.472-13.163 14.414.342-1.812.452-3.733-1.383-5.17a5.425 5.425 0 0 0-5.748-.194 14.52 14.52 0 0 0-3.033 2.546c.314-2.317-.217-4.064-1.565-5.027-1.832-1.303-4.33-.524-5.774.898-.45.513-.854 1.057-1.21 1.627-.01-.324-.032-.65-.069-.974-.246-1.75-1.577-3.155-3.357-3.502-1.772-.176-3.188 1.09-4.233 2.217-4.843 5.296-7.626 12.252-10.065 18.355a15.087 15.087 0 0 0-1.527 6.928c.667 6.586 1.797 6.27-4.38 14.157l-.013.016a30.813 30.813 0 0 0-1.104-.142 5.6 5.6 0 0 0-2.965.298c-1.157.645-.55.178-9.825 10.494a.5.5 0 0 0 .062.726l30.951 24.41a.5.5 0 0 0 .72-.107 56.16 56.16 0 0 0 6.453-12.258c.771-1.799.757-3.439-.125-5.187a31.578 31.578 0 0 0-.823-1.684c4.136-7.351 6.397-8.966 13.43-13.275 4.42-2.709 8.99-5.51 12.012-10.405 2.4-3.644 1.007-9.125-.919-11.719 3.417-6.345 7.787-10.323 13.887-23.538.637-1.373 1.249-3.123.295-4.523h-.002Zm-38.685 69.957a55.138 55.138 0 0 1-6.045 11.623l-30.114-23.75c8.55-9.55 8.232-9.339 9.143-9.858a4.613 4.613 0 0 1 2.407-.214c10.69 1.183 19.934 8.073 24.505 17.808.731 1.557.805 2.758.104 4.392v-.001Zm37.482-65.854c-7.393 16.014-12.213 18.217-16.435 29.061a.499.499 0 1 0 .931.362 49.312 49.312 0 0 1 1.998-4.46c1.45 2.305 2.694 6.998.601 10.177-2.904 4.704-7.173 7.32-11.69 10.09-6.956 4.261-9.386 5.97-13.473 13.102-4.605-8.004-12.577-13.661-21.657-15.338 5.935-7.622 4.97-7.716 4.266-14.419a14.124 14.124 0 0 1 1.443-6.462c2.424-6.058 5.17-12.924 9.888-18.083.885-.954 2.086-2.034 3.352-1.906a3.15 3.15 0 0 1 2.512 2.64 10.198 10.198 0 0 1-.265 3.743c-.16.625.768.89.961.275a11.441 11.441 0 0 1 2.302-4.112c1.146-1.126 3.13-1.721 4.468-.77 1.857 1.327 1.216 4.442.668 6.18-.175.557.585.907.896.423a13.51 13.51 0 0 1 4.131-4.08c1.45-.842 3.283-.776 4.642.146 1.976 1.548.972 3.834.566 6.31-.084.514.58.797.892.383 4.057-5.351 8.655-11.416 14.33-15.987a7.007 7.007 0 0 1 2.651-1.528c.9-.253 1.858.053 2.421.748.647.952.127 2.375-.399 3.508v-.003Z" fill="#1B2327"/><path d="M58.002 161.643c-4.819-11.702-15.267-21.156-28.773-21.909a12.872 12.872 0 0 0-5.04.609 16.389 16.389 0 0 0-5.53 4.05c-2.98 2.893-5.918 5.722-8.649 8.627-2.636 2.804-5.308 5.357-5.497 9.238-.222 4.306 2.653 8.628 5.366 12.342 7.295 9.945 14.824 15.239 23.694 16.656 1.133 0 6.37 1.556 12.058-1.846 5.788-4.223 9.083-12.924 11.472-19.679 1.337-3.784 1.505-3.944 1.61-5.269a6.89 6.89 0 0 0-.71-2.818v-.001ZM35.322 134.451c-.965.955-1.13 2.298-.192 3.246a2.433 2.433 0 0 0 3.437.018c2.572-2.547-1.34-5.134-3.244-3.264ZM178.896 148.685c-9.096-11.66-8.555-11.188-9.85-12.005a5.809 5.809 0 0 0-3.025-.495c-.955.042-1.904.124-2.843.246-4.615-7.866-4.499-7.606-4.776-8.615a7.722 7.722 0 0 1 .215-2.968c3.596-19.369-7.054-39.782-22.329-52.069l-.005 1.285c14.696 12.138 24.818 31.919 21.36 50.563a8.63 8.63 0 0 0-.221 3.379c.322 1.201.181.895 4.689 8.58-9.132 1.48-17.35 6.669-22.602 14.268a228.844 228.844 0 0 0-3.795-7.096c-1.779-3.657-5.039-3.214-7.256-6.199-3.311-4.604-4.673-9.222-6.027-14.04l-1.029.046c1.387 4.953 2.763 9.738 6.248 14.584 1.118 1.505 2.324 2.153 3.49 2.78 1.796.965 2.88 1.636 3.687 3.291a237.008 237.008 0 0 1 4.061 7.564 33.608 33.608 0 0 0-1.346 2.288 7.283 7.283 0 0 0-.998 2.818 7.722 7.722 0 0 0 .438 2.694 60.133 60.133 0 0 0 6.048 13.647.5.5 0 0 0 .858-.516 59.197 59.197 0 0 1-5.955-13.442 6.82 6.82 0 0 1-.393-2.304 6.347 6.347 0 0 1 .87-2.402c5.477-10.216 16.073-16.878 27.687-17.388a4.855 4.855 0 0 1 2.474.375c1.027.656.561.237 9.537 11.744a.5.5 0 1 0 .789-.615l-.001.002Z" fill="#1B2327"/><path d="M186.96 155.145c-1.008-1.001-1.959-1.946-2.69-2.762a17.73 17.73 0 0 0-5.721-4.779c-2.84-1.133-5.388-.995-5.288-.995-6.936-.065-13.631 1.998-19.313 5.994-5.151 3.548-11.408 9.663-13.518 16.185-2.085 6.442 1.236 14.489 3.402 20.801a6.82 6.82 0 0 0 1.21 2.399 6.133 6.133 0 0 0 2.745 1.51c4.809 1.238 9.406 1.373 14.289.072 10.85-2.712 25.002-11.166 32.006-20.938 4.369-6.067-2.272-12.668-7.122-17.487ZM167.452 140.823c-.828-1.525-3.002-1.837-4.031-.55-1.198 1.501-.313 4.32 1.906 4.32 1.797 0 3.045-2.075 2.125-3.77ZM139.969 140.271a.5.5 0 0 1-.432-.247c-5.283-9.028-6.034-20.134-2.028-29.785a61.864 61.864 0 0 1-15.3-21.085c-.609-.971-.709-2.257-.233-3.378.812-1.247 2.459-1.456 4.558-.653a54.236 54.236 0 0 1 29.163 26.561.501.501 0 0 1-.897.445 53.24 53.24 0 0 0-28.625-26.073c-.598-.228-2.605-.893-3.322.19-.305.74-.231 1.685.239 2.442 3.533 8.027 8.829 15.281 15.348 21.04a.502.502 0 0 1 .129.572c-4.038 9.437-3.353 20.36 1.832 29.219a.5.5 0 0 1-.432.752Z" fill="#1B2327"/></svg>