<svg width="200" height="200" fill="none" xmlns="http://www.w3.org/2000/svg"><path d="M15.13 118.09a24.734 24.734 0 0 0 3.51 4.64l.29-.28a25.417 25.417 0 0 1-3.45-4.56l-.35.2Zm17.92 14.31c1.05.52 5.1 2.44 5.21 2.49l.18-.37c-.39-.18-2.24-1-5.25-2.51l-.14.39Zm-10-5.86a45.939 45.939 0 0 0 4.87 3.14l.19-.35a46.155 46.155 0 0 1-4.82-3.12l-.24.33ZM12.18 107a19.15 19.15 0 0 0 .68 5.78l.4-.11a19.114 19.114 0 0 1-.69-5.67h-.39Zm73 50.14 5.22 2.47.18-.37-5.23-2.48-.17.38Zm-63.94-63.5c.81-.5 1.6-1 2.5-1.46l-.19-.36c-.87.48-1.73 1-2.5 1.48l.19.34Zm7.96-3.86a53.009 53.009 0 0 1 5.71-1.84l-.11-.39c-2.19.68-3.95 1.11-5.75 1.85l.15.38Zm17.41-4.45-.08-.4c-2 .35-4 .74-5.89 1.17l.08.4c1.92-.43 3.89-.82 5.89-1.17Zm11.92-1.54v-.4c-2.08.18-4.1.39-6 .64v.41c1.94-.25 3.96-.44 6-.65Zm41.97-.2V84l2.89.18v-.41l-2.89-.18Zm70.64-28.85c-1.8-.59-3.63-1.11-5.63-1.57l-.09.4c2 .46 3.8 1 5.59 1.56l.13-.39ZM155.3 85.69c2-.12 3.92-.26 5.81-.44v-.4c-1.9.17-3.85.32-5.81.44v.4ZM191.26 73a7.998 7.998 0 0 1-2.33 5l.27.29a8.054 8.054 0 0 0 2.46-5.29h-.4Zm-.75-5.75c-.94-1.86-2.19-2.86-4-4.29l-.25.32a12.327 12.327 0 0 1 3.88 4.15l.37-.18Zm-23.64 16.94.06.41c2-.26 3.88-.56 5.75-.89l-.06-.4c-1.87.33-3.81.63-5.75.88Zm11.44-1.98.1.39c1.43-.32 4-.94 5.65-1.46l-.12-.39c-2.67.7-.94.38-5.63 1.46Zm3.44-22.6a49.24 49.24 0 0 0-5.17-2.74l-.16.36a52.2 52.2 0 0 1 5.11 2.77l.22-.39Zm-73.86-20.7c1 0 .2-.84-.39-.36a.185.185 0 0 0-.07.11c-.01.12.19.25.46.25Zm50.71 42.88.77.2a22.343 22.343 0 0 0-7.46-5.13c-9.33-3.93-18.19-1.44-23.53-3.69 8.15 3.42 14.22 0 23.41 4a22.645 22.645 0 0 1 6.21 4.1c-7.91-1.32-13.63 3.8-21.06 7.7-2.81 1.47-6.64 2.08-8.23 2.54a2.44 2.44 0 0 0-.78.29c-.09.13.24.12.81 0a44.825 44.825 0 0 0 5.66-1.45 46.667 46.667 0 0 0 9.26-4.69V86c2 0 3.94 0 5.81-.09v-.4c-1.83 0-3.75.08-5.71.09a38.995 38.995 0 0 1 6.84-3.33 14 14 0 0 1 8-.48Z" fill="#1B2327"/><path d="M105.87 165.53a20.254 20.254 0 0 1-3.77-3.53c.14-.054.277-.118.41-.19 2.94-8.82 7.85-15.51 12-25.57a36.546 36.546 0 0 0 2.46-9.12c.075-.808.105-1.619.09-2.43h.12a.38.38 0 0 0 .25-.43 1.797 1.797 0 0 0-.34-.64l.55.3c.84.56 2.06.07 1.69-.57a.997.997 0 0 0-.33-.35l-.62-.44h.17c.287.06.583.06.87 0a.633.633 0 0 0 .45-.34.69.69 0 0 0-.13-.7 11.38 11.38 0 0 0-2.25-1.78c1.46 0 2.29-2.7-2.54-1.31 0-.1 0-.16.08-.26a65.523 65.523 0 0 1-10.26-5.79c-6.12-3.92-7.54-4.51-11.32-5.36l-.54-.19-.12-.07c-.09-.11 0-.09-.07-.13-5.94-14.1-6.92-14-9.14-17.73a.11.11 0 0 0 0-.08l-.23-.32c-.45-.52-.59-1.13-1.65-1.68-6-3-14.35 10.82-19.06-1.93 3.89-4 8.48-5.87 13.67-7.15.859-.266 1.695-.6 2.5-1 .37 2.49 3.44 5.39 6.3 5.1-.72 1.68 1.57 1.42.79-.16 1.9-.58 1.82-2.68 1.38-2.68.13-.72.338-1.424.62-2.1 2 2.38 5.18 1.1 5.33 1.08.822.464 1.617.975 2.38 1.53.83.82 10.8-11.42 7.11-19.64-1-2.28-3.79-3.89-5.8-4.9-3.43-1.71-5.59-2.49-9.08-.92-2.79 1.14-6.29 2.78-7.79 5.72a6.221 6.221 0 0 0-.71 2.88v.54a77.264 77.264 0 0 0 .14 8.63c-.07 2.47-.26 2.54.77 2.71l.47.14c-1.61 2.12-2.61 2-5.48 3 .12 0-8.47 2.09-13.55 7.75-3.92 4.38-6 10.12-7 15.91a5.001 5.001 0 0 0 0 2.12c-.62 2.85-3.69 15.73-4.14 16.55a25.8 25.8 0 0 0-2.14 4.66 26.58 26.58 0 0 0-.22 14.48L43.6 137l-.17.37 4.89 2.32c1.51 6 2.59 10.07 5.94 15.38a18.615 18.615 0 0 0-8.37-1c-6 .5-11.46 3.1-17.3 4.19-.86.16-2.38.34-2.56.36-.33.17-.41 1.42-.46 1.88-2-.33-4.13-1.89-4.66-.16-.07.21.16.2.89 1.21.161.279.356.538.58.77a54.365 54.365 0 0 0-5 3.18c-.11.08-.24.16-.38.27-1.18.8-2.77 2-1.7 3.06.622.42 1.372.611 2.12.54 2 0 2.84-.33 8-1.19v.78a.327.327 0 0 0 .2.16c.1 0 10.26 1.49 28 2.65 5.48.38 12.13 1.62 16.33-2.91a12.059 12.059 0 0 0 2.19-3.86c1.305-4.1 2.363-8.274 3.17-12.5l4.69 2.16.17-.37L75.4 152c.28-1.48.52-3 .74-4.45.65-4.15 1.09-8.33 1.51-12.5l9-.62a72.598 72.598 0 0 0 12.52-1.74 25.476 25.476 0 0 0-3.56 8.74 82.236 82.236 0 0 0-1.24 9.64c-.59 6.62-1 6.88-1.05 10.33a.76.76 0 0 0 .16.19c-.83 1.53-.44 2.94-.07 3.11.84 3.93.34 2.86 2.93 3.13a.29.29 0 0 0 .3-.23c.142-.701.329-1.393.56-2.07 1.57.59 2.38 1 5.44 2 3.75 1.47 4.9-1.07 3.23-2Zm-26.15-91.4c-.35-12.42-.19-10.86-.22-11.44.06-.1-.73-5 8.43-8.29 2.53-1.13 5-1.29 8.87.92 2 1 4.71 2.57 5.69 4.78 2.6 6-1.86 15.06-6.75 19.11l-.36-.21c1.37-.87 4.37-4.59 5.36-9.15a20.181 20.181 0 0 1-5.48 9c-.434-.32-.892-.603-1.37-.85a13.6 13.6 0 0 0 4-5.13 3.72 3.72 0 0 0 .2-.38 30.783 30.783 0 0 0 2.85-9.59s-.12-.28-.33 1.09a40.616 40.616 0 0 1-1.46 5.2c.32-2-.21-4-.48-4.06a.18.18 0 0 0-.19.16 4.46 4.46 0 0 1-1.89 3.48c1.19-2.92-.43-6-.65-5.22a2.999 2.999 0 0 1-1.08 1.63c.13-.6.08-2.07-.25-2.19a.15.15 0 0 0-.18.1 5.35 5.35 0 0 1-3.38 3.36h-.13l-.27.06a8.998 8.998 0 0 0 1.92-4.07.11.11 0 0 0-.12-.08c-.17 0 .2-.26-2.09 2.95-2.14 2.67-3.47 5.18-3.11 8.55-1.25-.56-1.27-.53-1.39-.68a20.634 20.634 0 0 1 .62-5.3c.65-1.46.24-3.67-1.34-3.87-1.34-.17-2.48 2.55-1.45 4.38-.92 1-.93 3.42.5 2.92a12.863 12.863 0 0 0-.1 4.06l-1.79-.52c0-.78-.16-6 0-7.43-.72 1.53-.39 6.3-.25 7.35l-.91-.27c.23-7.5-1.2-13.8 3.06-16.31.06 0 0-.12 0-.09-4.2 2.31-3.42 8.31-3.4 16.36l-1.08-.33Zm4.18-5.39c.182.313.445.572.76.75 0 .65-.47 1.68-1 1.4-.29-.14-.18-.32-.2-.48a2.22 2.22 0 0 1 .44-1.67Zm-3 6s.44.18 3.35 1h.06c.44-.06-.54-2.09.34-4.74 1.23-1.45-.1-4.34 0-1.85-2.14-1.7-1-4.51.42-4.69 1.38.28 1.58 2.15 1 3.41-.07.24-.14.48-.19.73a21.361 21.361 0 0 0-.43 4.35c0 .63.27.59 1.78 1.31a.15.15 0 0 0 .13 0 .24.24 0 0 0 0-.12c-.45-4.45 2.22-7.12 4.73-10.75a6.275 6.275 0 0 1-.25.73 8.547 8.547 0 0 1-1.65 2.62c-.2.67 3.19-.39 4.38-3.09.33 1.37-.42 2.36.11 2.11A3.31 3.31 0 0 0 96.13 64c1.62 3.27-.66 5.67.21 5.3a4.31 4.31 0 0 0 2.39-3.23 7.359 7.359 0 0 1 .08 3.26 1.05 1.05 0 0 0-1-.46c.36.23.678.521.94.86a12.086 12.086 0 0 1-.75 2.14c-1.51 3.14-3.77 6.67-7.68 6-2-.34-2.38-1.83-2.59-1.35a8.002 8.002 0 0 0-.63 2.56.14.14 0 0 0 0 .14c.23 1-.92 1.47-1.67 1.54-3.82.26-5.61-3.76-6.12-4.35A5.938 5.938 0 0 0 81 74.74h-.1Zm-59.58 85.6c.6-1 1.71.13 3.69.59a12.02 12.02 0 0 0-2.49 1.25 5.166 5.166 0 0 0-1.15-1.84h-.05Zm4 7.52-5.08.87c-4.59.85-7-.12-3.14-2.75l.39-.28c1.3-.93 6.42-4.32 8-4.58-.1 2.11-.18 4.55-.13 6.74h-.04Zm89.57-49.3c4.38-.92 4.08.89 2.19.93a.128.128 0 0 0-.12.06c-.29.3 2.06 1.59 2.39 2.22.1.22.08.26-.12.32a3.9 3.9 0 0 1-2.17-.51.209.209 0 0 0-.155-.015.198.198 0 0 0-.12.1.203.203 0 0 0 .085.275l1.22.85c.36.26 1 .65.82.74a1.174 1.174 0 0 1-1.2 0c-.44-.21-.88-.46-1.32-.69-.14-.1-.27.09-.15.21.34.43.78.73.9 1.17.08.22-.29.33-1.23-.18a4.134 4.134 0 0 0-.34-.23c-.32-.22-1.51-1.24-1.62-1.33.252-1.324.579-2.633.98-3.92h-.04Zm-31 .15c-.72-.42-1.72-1.15-2.4-1.63a17.86 17.86 0 0 1-2.06 1.31 4.45 4.45 0 0 1 0-.6.884.884 0 0 1 .22-.29c.13-.11.15-.55 0-.45-.56.07-.88 1-.57 1.53-.28.14-.56.29-.84.42-.28.13-6.5 3.8-20.93.63-1.87-.41-4-1.11-4.93-2.66 0-.23.1-.46.14-.7.27-1.43.54-2.86.79-4.29.5-2.81 1.13-5.15 1.5-8a3.14 3.14 0 0 0 .91 1.59c4.48 5.33 13.46 5.65 19.19 6.81.38.07 1 .34 1.34.19a10.213 10.213 0 0 0-1.48-1.53c-2.64-2.94-9.31-12.77-9.42-16.88 3.45 9.43 10.42 19.17 19.1 24.18 7 3.57 21.24 6.46 29.37 4.73 0-.16 0-.26.08-.42l.33.31c0 .29 0 .37-.18.41-7.18 1.57-22.24-.09-30.05-4.66h-.11ZM96 167.25h-1.41c-.1 0 .1.17-.82-2.48a11.03 11.03 0 0 1 2.8.58 13.607 13.607 0 0 0-.49 1.9H96Zm8.43.23c-3.75-.69-7.24-2.95-10.26-3.08a3.621 3.621 0 0 1-.64-.07 2.76 2.76 0 0 1 .14-2.55 13.004 13.004 0 0 0 8.19.22 17.377 17.377 0 0 0 3.65 3.88c.24.2.45.34.5.55.31.77-.81 1.12-1.5 1.05h-.08Z" fill="#1B2327"/><path d="M94.57 67.55a1.74 1.74 0 0 0-2.27 0c.75-.14 1.52-.14 2.27 0Zm-1.52 1.34c-.1.47-.46 1-.07 1.1.39.1.35-.5.55-1 .03-.09-.39-.42-.48-.1Zm4.8 2.56.24-.82a.25.25 0 0 0-.48-.13c-.06.26-.16.51-.22.77a.25.25 0 1 0 .46.18ZM94 74c.52-.23 1 .26 1.61.1.88-.24.21-1.23.21-1.54a2.7 2.7 0 0 1 .75-2.85c-2 1.1-.77 3.58-.77 3.68a.39.39 0 0 1-.26.48c-.49.23-1.09-.17-1.54.13Zm-4.18-.66c.154-.054.317-.08.48-.08.22 1.89 2.11 2.9 2.84 2.64a.149.149 0 0 0 .05-.196.15.15 0 0 0-.05-.054 3.36 3.36 0 0 1-2.72-2.39h.22a.07.07 0 0 0 .032-.104.07.07 0 0 0-.032-.026 1.43 1.43 0 0 0-.86.15c-.06 0 0 .11 0 .09l.04-.03ZM93.05 92c-.07-.54-.14-1.08-.22-1.63a6.249 6.249 0 0 1-4.24 2.73c-1.26.21-1.77.31-2.54-.71 2 3.68 1.69 2.21 6.09 11.91-.41-.9 1.17-5.27 1.23-6.56a35.519 35.519 0 0 0-.32-5.74ZM17.23 40.94c.34-.26-.52-.71-1-.29a.18.18 0 0 0 0 .28.85.85 0 0 0 1 .01Zm137.35-21.36c3.43 1.78 7.14 1.11 8.33 5.68-2.76-1.81-6 .47-9.08-.21v-6.18a.214.214 0 0 1-.13.2.55.55 0 0 1-.29.08.448.448 0 0 1-.41-.15.126.126 0 0 1 0-.12v31.56l-1.94-.11-3 2.38 8.61.51.13-1.21 2.84.42.07-.4-2.86-.42.11-1-3.13-.17V25.09c3.14.84 6.62-1.62 9.21.46l.24.21-.07-.24c-.98-4.86-5.53-4.47-8.63-5.94Zm-.71 31.13 3 .16-.3 2.14-7.84-.46 2.51-2 1.82.1v.83a.412.412 0 0 0 .42.23c.58.02.35-.4.39-1Z" fill="#1B2327"/><path d="M153.62 19s.08-.06.08-.11-.14-.17-.32-.17a.429.429 0 0 0-.29.1.084.084 0 0 0-.007.035c0 .012.002.024.007.035a.11.11 0 0 0 0 .08.377.377 0 0 0 .29.09.53.53 0 0 0 .24-.06Zm-31.34 21.08c-4.81 2.11-9.72-1.85-13.83-1v-.35c-.25.55-1.18.33-1.18-.08l-.13 43.88-2.6-.14-2.1 3.68 9.76.57-.48-1.93 2.81.18v-.4l-2.91-.19v.17l-.42-1.64v-.08l-2.91-.16.1-34.73v-.39c.76-.42 1.48-.91 2.25-1.32a9.858 9.858 0 0 1 2.41-1c.93-.22 1.9-.27 2.84-.4a8.191 8.191 0 0 0 5.26-2.52 6.253 6.253 0 0 0 1.12-1.87 2.13 2.13 0 0 1 .13-.38l-.12.1ZM111.09 83l.86 3.46-9.1-.54 1.83-3.27 2.48.14v1.61c.28.55 1.18.3 1.18 0v-1.59l2.75.19Zm4.58-38.4c-.851-.003-1.7.091-2.53.28a11.81 11.81 0 0 0-2.6 1.14l-1.15.66-.52.32c-.05 0-.42.21-.42.26v-7.99c4-.78 8.85 2.95 13.69 1-.07 0-.2.47-.24.56-.09.189-.19.372-.3.55a6.273 6.273 0 0 1-.74 1A6.558 6.558 0 0 1 119 43.8a7.461 7.461 0 0 1-2.93.74l-.4.06ZM126.72 72c.58 0 1.07-.27 1.07-.58 0-.31-.49-.57-1.07-.57-.58 0-1.06.26-1.06.57 0 .31.5.58 1.06.58Z" fill="#1B2327"/><path d="M127.72 71.79c-.06.41-.68.47-1 .47a1.286 1.286 0 0 1-1-.33c-.02.283-.02.567 0 .85v12.37l-5.34-.29v.4c1.78.11 3.57.2 5.35.29v22.33a7.713 7.713 0 0 0-1.8-.14c0-.14.61-.62-.58-1.29a58.451 58.451 0 0 0-18.85-9.71 1.999 1.999 0 0 1-1-.87 9.584 9.584 0 0 1-.7-1.31c-.92-1.83-1.86-3.6-2.88-5.36-2.88-5.14-6.86-9-12.43-11v.08a21.24 21.24 0 0 1 8.46 5.89c-2.11.39-3.34 3-3.17 4.85.427 1.056.703 2.167.82 3.3A25 25 0 0 1 92.35 105c.32.82.62 1.62.58 1.52.072.051.149.095.23.13l.34.11c3 1 2.78-.13 11.43 5.36l1.5 1c5.36.77 11.12.87 15.9-.76.133-.056.257-.13.37-.22h.13a1.18 1.18 0 0 0 .23-.35c.46 1 1.75 2.91 2.7 3.18v54.73l-1.81-.43-17.49 5.25 22.59 6.81h.07l16.27-7-17.63-4.15v-55.75a.724.724 0 0 0 .382-.428.729.729 0 0 0-.052-.572c-.12-.24-.21-.41-.33-.61v-.16l.33.13c.2.05.41.05.61 0a.367.367 0 0 0 .31-.33 6.777 6.777 0 0 0-1.25-1.65v-1c.48-.21.57-.63 0-1.06V72.4a3.116 3.116 0 0 0-.04-.61Zm16.66 102.61-15.29 6.6-21.47-6.47 16.38-4.95 1.8.42v5c0 .09.25.45 1 .45s1-.36 1-.45v-4.48l16.58 3.88Zm-15.81-62.07c.01.043.01.087 0 .13a1.82 1.82 0 0 1-.81-.22v-1.07c.301.364.572.752.81 1.16Zm-2.2-2.59c-.36.102-.699.268-1 .49a1.526 1.526 0 0 1-1 .19 1.766 1.766 0 0 0 1.39-.2v2.31c-.32.06-.14.34 0 .63v1.54a7.4 7.4 0 0 1-2.68-3c.12-.28.85-4.06.83-4a7.223 7.223 0 0 1 3.75 1.28c.67.65-.99.69-1.29.76ZM18.46 99.55 24.64 94l-7.33-.43.12-40.92a35.861 35.861 0 0 0 8.67-2.55c3-.85 7.91.11 8.64 1.64 0-2.07-2.4-4.75-2.69-5.05-4.76-5-9.41-2.51-14.59-5.17v-.59c-.24.57-1.53.45-1.54-.14l-.15 52.65h-.73l-6.7 5.03 6.51.7c-.48.68-.9 1.4-1.26 2.15l.38.17c.374-.794.812-1.557 1.31-2.28l3.18.34Zm-1-57.76a12.9 12.9 0 0 0 4.88 1.37c5.57.41 10 2.31 12 7.56a10.47 10.47 0 0 0-8.34-1 39.624 39.624 0 0 1-8.52 2.61l-.02-10.54ZM9.11 98.22l6.18-4.6h.49v3.14s.13.4.77.41c1.15 0 .65-.72.76-3.46l6.56.41-5.62 5-9.14-.9Z" fill="#1B2327"/></svg>