<svg width="200" height="200" fill="none" xmlns="http://www.w3.org/2000/svg"><path d="M150.204 78.66c1.571-5.406-.278-11.58-4.602-15.366-4.214-3.69-10.433-4.855-15.845-2.972-2.778.967-5.771 3.14-8.027 5.758a52.983 52.983 0 0 0-1.045-3.422c-.732-2.824-4.702-4.6-11.185-5.002-21.417-1.33-55.594 12.208-50.97 21.473.306.821.612 1.66.92 2.516-3.2-1.212-6.813-1.697-9.683-1.24-5.66.895-10.59 4.86-12.562 10.103-2.023 5.38-.737 11.695 3.201 15.716 7.106 7.258 24.114 8.876 34.76 14.884 1.866 1.054 4.45 2.756 5.315 5.361.868 2.61 3.47 2.73 4.452.218.198-.506.267-1.064.246-1.639 4.457 2.487 9.36 3.508 14.506 2.906 2.01 5.796 3.906 12.423 4.176 19.166-4.718 1.463-8.953 3.243-12.218 5.156-4.513 2.642-6.613 5.175-6.073 7.326 1.74 6.927 29.365 3.102 43.34-5.079 4.513-2.642 6.613-5.176 6.073-7.327-1.051-4.185-11.59-4.401-22.426-2.275-2.103-5.034-3.704-13.069-4.561-19.115 4.798-1.987 8.677-5.341 11.418-9.911.275.719.664 1.368 1.208 1.832 2.047 1.746 4.29.425 3.821-2.295-.467-2.705 1.006-5.425 2.154-7.237 6.543-10.322 20.774-19.795 23.606-29.537l.001.001v.001Zm-83.942-9.165c5.3-3.278 12.713-6.21 20.875-8.26 25.328-6.359 43.398-.725 25.541 10.32-17.618 10.896-51.435 14.641-53.462 6.566-.589-2.348 1.98-5.492 7.046-8.626Zm17.741 56.829c-.619 1.587-1.988 1.589-2.57-.169-3.44-10.342-31.789-11.928-40.31-20.629-3.615-3.69-4.84-9.72-2.98-14.665 2.124-5.647 7.877-9.626 13.911-9.626 2.521 0 5.354.596 7.845 1.67.58 1.638 1.165 3.33 1.767 5.051a9.787 9.787 0 0 1-1.2-.752c-3.7-2.685-8.605-3.427-12.498-1.893-4.267 1.683-7.143 6.18-6.69 10.458.297 2.806 1.831 5.068 3.065 6.471 5.067 5.762 12.643 7.736 19.97 9.645 2.95.769 6.554 1.678 9.877 3.01 2.674 3.675 5.801 6.875 9.546 9.288.127.082.255.163.383.242.112.687.1 1.351-.115 1.9v-.001ZM73.17 113.438c-2.932-1.059-5.979-1.836-8.604-2.52-7.18-1.871-14.607-3.806-19.47-9.337-1.14-1.294-2.553-3.37-2.823-5.916-.407-3.848 2.2-7.899 6.063-9.422 3.58-1.413 8.112-.717 11.543 1.772.803.583 1.555.982 2.237 1.227 2.882 8.201 6.188 16.984 11.054 24.198v-.002Zm38.106 30.944c.797 2.194 2.181 5.158 4.973 5.572a.5.5 0 0 0 .147-.989c-1.348-.2-2.455-1.202-3.413-3.115 16.882-3.328 28.641.076 15.425 7.813-4.2 2.459-10.052 4.701-16.477 6.314-14.199 3.564-24.59 2.56-25.388-.616-.409-1.627 1.636-3.895 5.61-6.22 3.138-1.838 7.201-3.555 11.735-4.979-.001 1.601-.206 3.285-1.14 4.568a.503.503 0 0 0 .11.699.503.503 0 0 0 .699-.11c1.289-1.771 1.387-4.07 1.313-6.085-.25-6.848-2.146-13.55-4.171-19.416 1.727-.272 4.529-.969 6.345-1.636 1.03 7.186 2.451 13.299 4.234 18.2h-.002Zm7.721-29.756c-6.937 12.496-23.594 15.881-34.72 8.717C70.85 114.697 65.27 94.829 60.292 81.03c11.564 7.821 55.687-3.995 60.181-15.73 4.271 14.656 4.634 38.316-1.477 49.326h.001Zm4.338-41.012c.394-.502.767-1.109 1.107-1.809 1.847-3.814 5.512-6.567 9.337-7.015 4.122-.48 8.335 1.857 9.794 5.441.964 2.37.699 4.87.308 6.547-1.675 7.174-7.306 12.387-12.751 17.428-2.275 2.106-4.973 4.576-7.263 7.282 1.209-8.72.917-18.986-.531-27.875l-.001.001Zm.125 41.99c.307 1.775-.844 2.509-2.187 1.364-.59-.503-.964-1.345-1.184-2.261 1.592-3.02 2.734-6.902 3.474-11.25 6.653-8.696 18.621-15.01 21.292-26.45.425-1.82.708-4.539-.355-7.152-1.481-3.639-5.493-6.126-9.647-6.126-4.69 0-9.188 3.258-11.311 7.641-.148.305-.298.582-.449.833a74.6 74.6 0 0 0-1.051-4.928c2.03-2.527 5.031-4.956 8.046-6.006 5.077-1.768 10.909-.677 14.857 2.78 3.974 3.48 5.743 9.374 4.301 14.333-3.431 11.797-27.643 26.455-25.785 37.223l-.001-.001Z" fill="#1B2327"/><path d="M117.402 74.94c.21 3.099 1.885 9.43 1.916 19.596.018 5.95-.368 12.335-3.604 17.517-1.566 2.507-3.742 4.593-6.458 5.801-.734.326-.098 1.404.631 1.079 5.216-2.32 8.339-7.587 9.627-12.953 2.225-9.267.585-25.625-1.709-31.094-.081-.192-.42-.2-.403.055Z" fill="#1B2327"/><path d="M111.809 96.579c.993-1.573-.25-3.604-2.104-3.436l-6.99.636c-.41.039-.81-.128-1.071-.444l-4.487-5.397c-1.19-1.431-3.506-.877-3.918.938l-1.555 6.845c-.09.4-.373.73-.753.882l-6.52 2.6c-1.73.689-1.917 3.063-.32 4.017l6.03 3.594c.353.209.579.58.605.989l.458 7.004c.12 1.855 2.32 2.77 3.722 1.543l5.281-4.624c.309-.27.731-.369 1.128-.27l6.803 1.729c1.804.458 3.351-1.351 2.618-3.062l-2.765-6.452a1.24 1.24 0 0 1 .092-1.156l3.746-5.936ZM153.97 44.257c1.888-1.733 3.536-3.76 5.255-5.656 3.207-3.538 21.053-22.282 21.826-23.347.165-.227-.167-.566-.394-.394-2.464 1.865-23.884 25.031-26.833 29.285-.062.09.071.181.146.112ZM165.272 52.096c3.625-1.412 11.275-5.114 13.304-6.77.174-.142-.013-.466-.223-.384-2.067.806-.21.308-13.231 6.797-.195.097-.057.438.15.357ZM92.113 31.984c-.565-3.938-.713-5.84-4.263-23.214-.218-1.066-.31-2.264-.862-3.22-.235-.406-.776-.186-.82.223-.13 1.234-.02.24 3.992 19.693.46 2.23 1.028 4.418 1.567 6.625.063.257.422.14.386-.106ZM37.949 54.157c-2.032-1.487-5.916-3.296-12.023-8.06-.485-.379-1.04-1.015-1.659-1.128-.468-.086-.76.335-.58.753.236.548.935.915 1.402 1.27 3.056 2.314 9.153 6.463 12.645 7.674.32.11.45-.336.215-.51v.001ZM28.3 71.87c-2.043-1.245-3.086-1.565-20.93-8.573-.505-.2-.902-.437-1.447-.32-.29.064-.47.468-.292.718.497.702 1.667.903 2.447 1.204 16.326 6.305 17.64 6.912 20.045 7.39.25.05.408-.28.177-.42v.001ZM32.119 134.153c-1.233.272-9.133 6.066-21.501 13.198-5.312 3.063-5.524 3.003-5.947 3.684-.155.248.047.572.329.573.964.005 1.895-.738 2.706-1.193 6.193-3.479 18.31-10.884 23.373-14.839.444-.347.952-.656 1.26-1.136.098-.151-.062-.322-.22-.287ZM47.16 148.642c-2.253 2.708-7.232 9.265-9.353 12.077-.437.579-.914 1.139-1.193 1.814-.138.334.323.486.54.314.495-.396.256-.127 5.237-6.838 1.74-2.344 3.477-4.683 5.113-7.1.138-.204-.185-.459-.345-.266v-.001ZM79.876 160.311c-2.234 4.436-8.632 24.857-10.666 32.236-.163.591-.356 1.163-.233 1.775.051.26.421.347.596.157.78-.851.37-.907 4.046-13.026 4.63-15.267 5.856-17.53 6.623-20.988.046-.211-.26-.367-.367-.154ZM143.719 138.881c2.959 2.871 6.479 5.96 9.644 8.577 2.518 2.082 2.83 2.314 3.349 2.417a.393.393 0 0 0 .407-.144.389.389 0 0 0 .034-.43c-.423-.864-3.299-2.402-12.992-10.862-.3-.262-.734.159-.442.442ZM155.121 116.677c2.849 1.952 20.003 9.602 37.488 14.74.786.231 1.563.527 2.391.51.474-.01.613-.613.234-.864-1.647-1.092-13.054-3.151-35.59-13.234-1.393-.623-2.777-1.376-4.237-1.83-.42-.131-.619.45-.286.678ZM124.863 32.335c-3.1 0-5.732-2.394-6.966-4.84-.505-1-.558-1.84-.155-2.493.213-.344 1.534-.575 3.785-2.275a.501.501 0 0 1 .8.362c.104 1.398 1.237 2.482 2.262 3.03 1.247.668 2.703.898 4.11 1.12a.498.498 0 0 1 .368.722c-1.684 3.296-1.767 3.599-2.267 3.95-.484.34-1.345.424-1.937.424Zm-6.329-6.687c-.505 1.325 2.989 6.319 7.162 5.617.749-.124.6-.084 2.167-3.148-1.24-.207-2.569-.486-3.746-1.116-1.311-.702-2.263-1.81-2.63-3.013a19.358 19.358 0 0 1-2.953 1.66ZM104.137 52.452a.503.503 0 0 1-.466-.317.502.502 0 0 1 .125-.55c1.933-1.799 2.723-4.975 1.8-7.228a.505.505 0 0 1 .034-.447.497.497 0 0 1 .378-.24c1.331-.135 2.975-.482 4.35-.623a.506.506 0 0 1 .527.344c1.343 4.167-.879 8.346-2.091 8.908-.435.202-.516.151-4.658.152l.001.001Zm2.597-7.86c.635 2.22.045 4.915-1.466 6.86 3.385 0 3.083.101 3.471-.425 1.445-1.962 1.932-4.584 1.309-6.937-1.056.133-2.22.356-3.314.502ZM64.47 25.471c.302-3.164-1.368-6.495-4.358-8.693a.506.506 0 0 1-.204-.404c0-.355-.153-.147 4.863-3.778.528-.382.962-.302 1.39.19a22.256 22.256 0 0 1 4.215 7.307c.198.577.359 1.248.046 1.854-.272.526-.415.549-5.16 3.977a.5.5 0 0 1-.792-.452v-.001Zm-3.228-9.082c2.624 2.148 4.187 5.144 4.26 8.125l3.544-2.566c.55-.4.717-.558.384-1.529-.965-2.812-2.61-5.435-4.062-7.02l-4.126 2.99ZM49.851 50.203c-2.252-1.216-4.016-2.82-5.39-4.905a.501.501 0 0 1 .336-.77c3.742-.61 6.937-3.342 7.95-6.796.122-.412.687-.498.912-.11A7.842 7.842 0 0 0 57.653 41c.587.222.76.624.573 1.138-1.212 3.317-3.659 6.238-6.713 8.012-.689.402-1.076.368-1.662.053Zm-4.127-4.84c1.957 2.655 4.681 4.07 4.9 4.081.103-.01.281-.097.387-.158 2.818-1.637 5.083-4.318 6.231-7.37a9.008 9.008 0 0 1-3.877-2.935c-1.293 3.12-4.209 5.564-7.64 6.38v.001ZM23.13 119.779c-2.09-3.165-2.264-7.473-.443-10.977a.496.496 0 0 1 .52-.264c1.401.212 2.823.075 3.896-.377a.506.506 0 0 1 .537.097.503.503 0 0 1 .128.53c-.819 2.318-.47 5.022.91 7.056a.5.5 0 0 1-.09.662 35.887 35.887 0 0 1-4.785 3.426.497.497 0 0 1-.673-.153Zm.29-10.204c-1.418 2.976-1.303 6.518.291 9.244a34.63 34.63 0 0 0 3.896-2.795c-1.183-1.963-1.562-4.398-1.052-6.632-.957.24-2.047.305-3.135.183ZM60.859 157.02c-1.24 0-2.476-.218-3.643-.652a.496.496 0 0 1-.324-.418.5.5 0 0 1 .233-.475c2.136-1.336 3.577-3.79 3.76-6.404a.497.497 0 0 1 .406-.457c1.74-.326 3.434-1.193 4.895-2.506a.496.496 0 0 1 .518-.094.496.496 0 0 1 .315.421 17.638 17.638 0 0 1-1.31 8.423c-.186.44-.422.938-.874 1.28-.798.602-2.838.881-3.975.881l-.001.001Zm-2.364-1.297c2.646.679 5.238-.006 5.736-.381.254-.192.414-.536.556-.871a16.625 16.625 0 0 0 1.294-6.976c-1.303.996-2.746 1.688-4.233 2.026-.272 2.431-1.513 4.707-3.353 6.202ZM46.048 183.636c-3.9-1.197-6.587-5.299-6.12-9.339a.508.508 0 0 1 .233-.368c1.646-1.019 3.63-1.745 6.069-2.22a.507.507 0 0 1 .435.124.504.504 0 0 1 .157.424c-.3 2.589 1.495 5.285 3.999 6.009a.5.5 0 0 1 .277.759 46.31 46.31 0 0 1-2.956 3.945c-.63.752-1.12.965-2.094.665v.001Zm-5.15-8.983c-.283 3.497 2.068 6.991 5.444 8.027.199.062.402.114.548.072.457-.13 2.744-3.359 3.014-3.75-2.403-1.008-4.111-3.574-4.114-6.18-1.93.427-3.537 1.029-4.892 1.831ZM149.745 130.627c-1.875 0-3.296-1.155-4.683-2.348a.496.496 0 0 1-.154-.516.495.495 0 0 1 .404-.357c2.741-.423 4.965-2.626 5.288-5.239a.51.51 0 0 1 .207-.346.5.5 0 0 1 .394-.081c1.256.268 3.131.607 4.912.458a.513.513 0 0 1 .41.159.51.51 0 0 1 .125.421c-.386 2.337-1.933 4.275-3.546 6.022-.996 1.078-1.864 1.828-3.356 1.828l-.001-.001Zm-3.269-2.463c1.235 1 2.799 1.892 4.271 1.275.606-.253 1.112-.769 1.621-1.319 1.357-1.469 2.661-3.07 3.159-4.891-1.457.039-2.905-.186-4.022-.407-.525 2.486-2.509 4.573-5.028 5.341l-.001.001ZM171.115 80.071c-3.48-1.263-5.575-5.277-4.575-8.765a.5.5 0 0 1 .248-.305 21.346 21.346 0 0 1 4.372-1.714.502.502 0 0 1 .615.612c-.607 2.27 1.124 4.91 3.447 5.254a.5.5 0 0 1 .321.802c-3.154 4.046-3.202 4.558-4.428 4.116Zm-3.667-8.286c-.706 2.907 1.124 6.298 4.008 7.345.192.07.248.067.264.061.101-.03.6-.724 2.561-3.242-2.223-.75-3.795-3.137-3.613-5.477-1.14.354-2.182.78-3.219 1.313h-.001ZM172.527 109.452c1.487-1.979 1.955-4.56 1.249-6.903a.498.498 0 0 1 .244-.585c1.057-.564 2.089-1.043 3.112-1.589.72-.382 1.247-.221 1.59.478a8.715 8.715 0 0 1 .292 6.962.5.5 0 0 1-.205.244 16.643 16.643 0 0 1-5.795 2.186.502.502 0 0 1-.585-.515.504.504 0 0 1 .099-.277l-.001-.001Zm2.316-6.792a8.792 8.792 0 0 1-.842 6.35 15.67 15.67 0 0 0 4.142-1.718c.709-1.927.595-4.156-.318-5.996a1.172 1.172 0 0 0-.072-.129c-.01.041-1.687.875-1.724.894-.396.197-.791.394-1.186.599Z" fill="#1B2327"/></svg>