<svg width="200" height="200" fill="none" xmlns="http://www.w3.org/2000/svg"><path d="M155 9.67c-4.29-.17-8 4-7.38 8.07a7.003 7.003 0 0 0 5.91 5.52c4 .52 8.36-2.82 8.21-7A7.109 7.109 0 0 0 155 9.67Zm2.68 10.61-3-2-3.91 2.44 1.33-3.69-2.18-1.41 2.92-.48 1.84-2.95 1.11 2.33 3.4-.15-2.51 2.43 1 3.48Zm-44.55 42.59c.67-.17 1.49-.77 1.4-1.53-.09-.76-.91-1.15-1.57-1.18-1.06 0-2.12 1-1.94 1.79.18.79 1.24 1.13 2.11.92ZM83.65 172.5c.984-.82 1.861-1.76 2.61-2.8 1.29-1.81 3.18-4.44 2.47-7.3-.45-1.84-2.11-4.24-4.49-4.32-2.38-.08-4.3 2.44-4.87 4.28-.79 2.51.39 4.79 1.18 6.3a12.399 12.399 0 0 0 3.1 3.84ZM82 163.3a1.998 1.998 0 0 1 3.414-1.414A2.001 2.001 0 0 1 84 165.3a2 2 0 0 1-2-2Zm70.44 8.92c.12-3.81-2-6.38-3.52-6.38s-3.64 2.57-3.53 6.38h7.05Zm.92-1.84 2.43.05a3.678 3.678 0 0 0-.34-2.6c-.84-1.47-2.19-2.14-3.1-.73a5.856 5.856 0 0 1 1.01 3.28Zm-11.36.05 2.43-.05a5.93 5.93 0 0 1 1-3.28c-.92-1.41-2.27-.73-3.1.73a3.67 3.67 0 0 0-.33 2.6Zm6.92-5.37a2.31 2.31 0 1 0-2.1-2.18 2.25 2.25 0 0 0 2.1 2.18Zm-5.22.64a1.643 1.643 0 0 0 1.49-1.66 1.505 1.505 0 0 0-1.033-1.285 1.508 1.508 0 0 0-1.593.426 1.509 1.509 0 0 0 1.136 2.519Zm10.44 0a1.643 1.643 0 0 0 1.49-1.66 1.505 1.505 0 0 0-1.033-1.285 1.508 1.508 0 0 0-1.593.426 1.509 1.509 0 0 0 1.136 2.519ZM88.41 65.75a3.26 3.26 0 0 1-2-.5 6.87 6.87 0 0 1 1.29-2.4.33.33 0 0 0-.47-.45c-.35.36-1.87 2.56-1.58 3.27.29.71 2.65 1.1 3.18.59a.33.33 0 0 0-.42-.51Zm5.88 5.06a10 10 0 0 0 6-2.25A4.925 4.925 0 0 1 98.23 72a.291.291 0 1 0 .3.5 5.2 5.2 0 0 0 2.67-5 .447.447 0 0 0-.291-.395.449.449 0 0 0-.479.105 9.25 9.25 0 0 1-6.16 2.93.38.38 0 0 0-.36.39.39.39 0 0 0 .38.28Zm.47-22.16a.42.42 0 1 0 0 .84 5.408 5.408 0 0 1 4.11 2.22.32.32 0 0 0 .54-.33 5.4 5.4 0 0 0-4.65-2.73Zm-11.95.68a3.41 3.41 0 0 1-2.39.8.36.36 0 0 0-.1.71 3.581 3.581 0 0 0 3.07-.79c.4-.38-.13-1.05-.58-.72Zm-.92 10.23c0-.45-.24-2.29-.23-2.72a.35.35 0 0 0-.35-.35.35.35 0 0 0-.36.33c-.054.95-.054 1.9 0 2.85a.473.473 0 0 0 .94-.11ZM96 59.32c0-.33-.2-1.65-.19-2a.35.35 0 1 0-.7 0c0 .36-.1 1.75-.06 2.11a.48.48 0 1 0 .95-.11Z" fill="#1B2327"/><path d="M49.3 103a.16.16 0 0 0 0 .1 55.905 55.905 0 0 0 50.83 33.22c31.24 0 56.84-26.29 55.53-58.47a53.796 53.796 0 0 0-11.91-31.62 55.82 55.82 0 0 0-21.13-16c.106-.36.186-.728.24-1.1.56-3.65-1-6.09-3.77-8.56a46.135 46.135 0 0 0-4.38-3.34 12.611 12.611 0 0 0-5.12-2.28A6.409 6.409 0 0 0 104 16.5c-.28.29-.52.75-.82.93a3.001 3.001 0 0 1-1.35.09 22.43 22.43 0 0 0-16.33 7.05A7.86 7.86 0 0 0 79.68 29c-29.9 12.41-42.62 45-30.38 74Zm33.77 8.38a35.607 35.607 0 0 1-1.5-11.87c.15-3.34.39-8.92 4-11.26a14.906 14.906 0 0 1 3.65-1.85C88.07 92.77 90.3 99.18 93 105c-1.71.61-8.36 5.39-9.93 6.4v-.02Zm8-25c-.09-1-.55-4-.62-4.47a1.22 1.22 0 0 0-.65-1c-.33-.17-1.8-.67-2.19-.87C83 77.78 79.56 72.4 80 64.55a9.62 9.62 0 0 0 3.65-.17c1.57-.47 2.55-1.95 2.9-4.39a2.148 2.148 0 0 1 1.69-.55A4.18 4.18 0 0 1 90 60a5.14 5.14 0 0 0 2.64 3.79 6.86 6.86 0 0 0 9-2.88 7.83 7.83 0 0 0 .79-2.73c1.702.103 3.41-.042 5.07-.43 0 .51 0 1.43.33 1.61 1.1.55 3-3.87 5.67-3.87a3.458 3.458 0 0 1 2.22 1 3.692 3.692 0 0 1 1.5 2.94 3.85 3.85 0 0 1-1.47 2.57 6.67 6.67 0 0 1-4.4 1.81.208.208 0 0 0-.095.036.208.208 0 0 0-.065.274 27.255 27.255 0 0 1 3.4 8.8c-.54 5.89-.77 8.4-.88 9.62-.92 11-4.71 20.14-10.81 29.35a31.844 31.844 0 0 0-3.42 6.2c-3.37-10.59-11.71-20.51-9.6-31.76.175-.071.356-.128.54-.17 0 .154.03.284.09.39a.286.286 0 0 0 .56-.11v-.06Zm6.68-41.82a6.3 6.3 0 0 0-1.74-1c4-.37 7.09-1.51 9.82-4.72.3.16 2 1 2.26 1.17 2.9 4.51 1.31 6.35.25 11.9-.32 1.67-.64 3.41-.82 4.94-1.657.42-3.36.63-5.07.62.08-.79.12-1.64.23-2.46a.999.999 0 0 0-.25-1.92l-12-.29a1 1 0 0 0-.73 1.61c-.07 1.558-.02 3.12.15 4.67A3.82 3.82 0 0 0 86.6 59c.084-1.385.03-2.775-.16-4.15a1.08 1.08 0 0 0-.37-1.81c-.1 0 .06 0-6.35-.16.08-2 .11-7.55 1-10.26 5.1 3.81 11.31 5 17 2.26a.19.19 0 0 0 .03-.26v-.06Zm4.3 10.53c-.26 1.55-.15 3.18-.72 4.63a6.2 6.2 0 0 1-7.8 3.55 4.088 4.088 0 0 1-2.76-3.42 29.115 29.115 0 0 1-.31-5c1.62.15 10.07.27 11.59.3v-.06Zm-16.29 0c.27 2.52.41 7-1.83 8.24a5.201 5.201 0 0 1-2.11.43 7.114 7.114 0 0 1-1.9-.09 3.559 3.559 0 0 1-2.81-2.43 24.442 24.442 0 0 1-.58-6.39l9.23.24Zm13.88 74.69C97.27 126 89 113.2 86.82 110a30.087 30.087 0 0 1 6.4-4.33c.67 1.28 5 10.17 5.89 13.73a.378.378 0 0 0 .593.198.378.378 0 0 0 .137-.198c1.4-5.42 4.85-7.87 8.89-16.29a25.898 25.898 0 0 1 6.14 4.77c-1.87 3.29-11.87 17.99-15.23 21.95v-.05ZM118 109.36c-5.8-5.41-8.17-6.65-8.9-6.93a57.746 57.746 0 0 0 5.31-18.68c2.9 2.25 5.9 4.46 8.58 6.91-.58 2.73-3.76 14.92-4.99 18.7Zm4.45-78.51c25.37 11.5 39 38.85 29.37 67.9-4.93-2.13-23.9-7.92-28.24-8.59-1.22-1.16-7-5.65-9.07-7.22 0-.48-.08.92.72-8.79 0-.11 2.23-11.2 3.17-13.62a24.17 24.17 0 0 1 1.83-3.69 9.896 9.896 0 0 0 1-6.94 5.931 5.931 0 0 0-1-2.07 7.163 7.163 0 0 0 2-3.66c.27-2.11-.78-4.16-1.8-5.93a7.998 7.998 0 0 0 1.24-3.94 3.415 3.415 0 0 0-.44-1.51 5.52 5.52 0 0 0 1.18-1.94h.04Zm-41.28-2.59c3-4.25 9-3.18 14.07-2.16A80.72 80.72 0 0 1 113 31.93a.27.27 0 0 0 .25-.48 74.786 74.786 0 0 0-17.26-6c-2.85-.61-6.26-1.32-9.22-1a22.15 22.15 0 0 1 12.39-5.84c3.17-.4 4.08.25 4.94-.82.427-.591.98-1.08 1.62-1.43 1.65-.86 4.06-1 6.94.64a36.702 36.702 0 0 1 4.45 3 17.439 17.439 0 0 1 3.71 3.64 6.661 6.661 0 0 1 1.33 4.54 6.657 6.657 0 0 1-1.44 3.92c-.391-.452-.819-.87-1.28-1.25-2.38-2-10.38-7.64-12-8.63a.301.301 0 0 0-.32.51c2.27 1.42 9.27 6.66 11 8.13 1.12.93 2.2 1.77 2.52 2.76.48 1.53-.4 3-1 4.42a.35.35 0 0 0 .08.4c.9 1.62 1.94 3.89 1.65 5.73a6.298 6.298 0 0 1-1.71 3c-4.1-4.88-13.87-10.35-20.37-12.8-7.62-2.91-17.24-2.92-19.86-1.83a10.75 10.75 0 0 1 1.75-4.28Zm-2 1.91a14.68 14.68 0 0 0-.66 2.88c-.77.32-1.46 1.62-2 3.71-.65 2.78-1.22 5.18.17 7.53a7.12 7.12 0 0 0 2.55 2.47c-.12 1-.43 4.65-.4 6.17l-2.63-.06h-.07a1 1 0 0 0-.35 1.82c-.044 2.15.083 4.3.38 6.43a4.25 4.25 0 0 0 3 3.26 19.48 19.48 0 0 0 2.11 10.43 13.69 13.69 0 0 0 7.32 6.52c1 .33 1 .29 1.1.83 0 0 .42 2.52.56 3.28a12.69 12.69 0 0 0-7.58 4.28 95.53 95.53 0 0 0-32.77 12.83 54.998 54.998 0 0 1 29.31-72.38h-.04ZM48 13.77c.59-.06.52-.95 0-.88-2.34.07-11.31.37-13.73.35a.29.29 0 0 0 0 .57c2.24.11 11.45.19 13.73-.04Zm-1 2.36c-.91 0-10.5.75-12.42.78a.29.29 0 0 0 0 .58c1.56 0 11.33-.26 12.52-.49a.44.44 0 0 0-.1-.87Zm1.59 3.95s-12.27.46-13.44.47a.33.33 0 0 0 0 .65c4.5 0 9 .17 13.47-.19a.47.47 0 0 0-.03-.93ZM116 169.22l-.74-.38a.17.17 0 0 0-.17 0 8.748 8.748 0 0 0-2.28 3 .16.16 0 0 0 .07.2c.714.371 1.505.57 2.31.58 2.66 0 4.34-2.28 5.84-4.4 1.3-1.86 2.93-4.17 2.12-6.41a4.26 4.26 0 0 0-1.39-1.89.14.14 0 0 0-.19 0 7.718 7.718 0 0 0-2.38 3 .14.14 0 0 0 0 .16l.81.77a15.822 15.822 0 0 1-4 5.37Zm-2.49-1.32a17.605 17.605 0 0 0-1.83 2.48c-.26.57.5.85.7.5a23.8 23.8 0 0 1 1.84-2.47c.21-.22-.22-.84-.71-.51Zm5.04-5.71a.413.413 0 0 0 .33-.15 25.16 25.16 0 0 1 1.84-2.47c.22-.23-.21-.84-.72-.5a17.436 17.436 0 0 0-1.81 2.47.433.433 0 0 0 .147.588.422.422 0 0 0 .213.062Zm29.83-12.8a.403.403 0 0 0 .33-.16.415.415 0 0 0 .07-.36l.23-7c0-.54.05-1.21-.57-1.56-.62-.35-98.48-.58-98.37-.58a.209.209 0 0 0-.17.1 57.992 57.992 0 0 0-.37 8 1.32 1.32 0 0 0 1.31.74c1.37 0 97.54.82 97.54.82Zm-.2-7.5c0 .23 0 .09-.18 6.65-4.68-.14-96.76-.86-97.45-.9-.31-.11-.31-.41-.29-.88l.19-6.19c4.91.14 97.1.38 97.48.41.38.03.28.44.25.91Zm-89.44 36.67a.438.438 0 0 0 .44-.44.44.44 0 0 0-.44-.44c-2.24.13-11.31.38-13.73.35a.293.293 0 0 0-.236.285.289.289 0 0 0 .236.285c2.23.11 11.42.18 13.73-.04Zm-1.05 2.36c-.9 0-10.49.75-12.42.78a.292.292 0 0 0-.29.29.289.289 0 0 0 .29.29c1.81 0 11.37-.27 12.52-.49a.439.439 0 0 0 .197-.761.439.439 0 0 0-.297-.109Zm1.62 3.96s-12.25.45-13.45.46a.33.33 0 0 0 0 .65c4.48 0 9 .17 13.46-.19a.46.46 0 0 0-.01-.92Zm31.28-6.32a.438.438 0 0 0 .44-.44.44.44 0 0 0-.44-.44c-2.26.12-11.32.38-13.73.35a.293.293 0 0 0-.236.285.289.289 0 0 0 .236.285c2.24.11 11.41.18 13.73-.04Zm-1.05 2.36c-.9 0-10.49.75-12.42.78a.292.292 0 0 0-.29.29.289.289 0 0 0 .29.29c1.8 0 11.36-.27 12.51-.49a.439.439 0 0 0-.09-.87Zm1.63 3.96s-12.26.45-13.45.46a.33.33 0 0 0 0 .65c4.48 0 9 .17 13.46-.19a.46.46 0 1 0-.01-.92Zm32.25-6.32a.436.436 0 0 0 .311-.129.436.436 0 0 0 0-.622.44.44 0 0 0-.311-.129c-2.26.13-11.31.38-13.74.35a.29.29 0 0 0 0 .57c2.25.11 11.42.18 13.74-.04Zm-1.05 2.36c-.89 0-10.49.75-12.41.78a.29.29 0 0 0 0 .58c1.8 0 11.36-.27 12.52-.49a.439.439 0 0 0-.11-.87Zm1.63 3.96s-12.26.45-13.45.46a.333.333 0 0 0-.273.325c0 .078.028.153.078.212.049.06.119.1.195.113 4.48 0 9 .17 13.46-.19a.46.46 0 1 0-.01-.92Zm31.35-6.32a.436.436 0 0 0 .311-.129.436.436 0 0 0 0-.622.44.44 0 0 0-.311-.129c-2.24.12-11.31.38-13.74.35a.29.29 0 0 0 0 .57c2.25.11 11.39.18 13.74-.04Zm-1.05 2.36c-.89 0-10.49.75-12.41.78a.29.29 0 0 0 0 .58c1.8 0 11.36-.27 12.52-.49a.439.439 0 0 0-.11-.87Zm1.63 3.96s-12.26.45-13.45.46a.333.333 0 0 0-.273.325c0 .078.028.153.078.212.049.06.119.1.195.113 4.47 0 9 .17 13.46-.19a.46.46 0 1 0-.01-.92Zm-95.12-11.83-2.32-.05c0-1.18-.08-4.22-.12-5.16a1.55 1.55 0 0 0 .26-2.1c-.09-.13 0-.1-2.83 0v-2a2.06 2.06 0 0 0 .3-1.74.2.2 0 0 0-.2-.15l-3.56.11c-.06-.76-.32-3.49-.42-3.67a.589.589 0 0 0-.32-.28c1.24-1.79-.71-2.42-.33-3.34.16-.39-.42-.66-.65-.3a8.445 8.445 0 0 0-1.28 2.49 1.617 1.617 0 0 0 .76 1.32.718.718 0 0 0-.45.74v3.11l-2.85.09a.188.188 0 0 0-.18.14 2 2 0 0 0 .34 1.91c0 .57.07 1.35.13 1.91-2.88.12-2.77.08-2.86.18-.72.86-1.18 2.35-.33 3v3.63h-1.68a.31.31 0 0 0 0 .62c.11 0 18.46.22 18.63.2a.328.328 0 0 0 .31-.35.33.33 0 0 0-.35-.31ZM51.62 162h-1.25v-3.16a3.287 3.287 0 0 1 1-.14c.02.42.2 2.65.25 3.3Zm-1.54-5.2c.18-.399.39-.784.63-1.15.33.64.81 1 .53 1.63-.12.219-.265.423-.43.61-.44-.31-.81-.67-.73-1.11v.02Zm-.22 7.05a1.66 1.66 0 0 0 3 0 2.117 2.117 0 0 0 2.07.5v1.47l-7.14.28c0-.49-.05-1-.09-1.46a2.225 2.225 0 0 0 2.16-.81v.02Zm-5.21 9v-3.37a3.106 3.106 0 0 0 2.44-.91 2 2 0 0 0 2.67 0c1.16 1.27 2.9.68 3.86-.73a2.19 2.19 0 0 0 3.42.2c.212.056.432.073.65.05 0 1.06 0 3.74.07 4.86-3.07-.02-11.1-.08-13.11-.08v-.02Z" fill="#1B2327"/><path d="M179.94 60.24c-1.58-1.12-.46-1-2.76-8.57-.78-2.57-1.65-5.66-4-6.65 0-7.46 0-38.54.05-39.6a.438.438 0 0 0-.156-.611.438.438 0 0 0-.224-.059c-18.9 0-136.39.53-146.81.65a.4.4 0 0 0-.37.53c-.25 13.15-.61 84.95-.7 112.33a46.193 46.193 0 0 0-12.18 17c-4.88 11.93-5.17 21-.85 26.83 2.86 3.9 8.57 8.28 13.1 6.27-.14 19.06-.18 24.63-.07 26.24.05.75.14.64.25.64.11 0 141.07-.26 147.32-.33a.435.435 0 0 0 .38-.23c.05-.1.27-44.69.44-56.52a7.936 7.936 0 0 0 6.22-3.29 43.087 43.087 0 0 0 6-10.06c2.26-5.95 3.89-10.24 4.84-16.89 2.1-14.65-1.05-30.65-7.38-43.92-1.13-2.39-.97-2.25-3.1-3.76ZM22 161.66c-1.88-.87-3.59-4.79-2.9-8.17a10.841 10.841 0 0 1 3.52-5.69 16.57 16.57 0 0 1 2.61-2.11v3.45a9.758 9.758 0 0 0-2 1.83.34.34 0 0 0 .53.42 13.017 13.017 0 0 1 3.35-2.39c.87-.39 1.05-.21.84.6a4.788 4.788 0 0 1-1.37 2.56 9.968 9.968 0 0 1-2.33 1.4 6.512 6.512 0 0 0-1.28.73.31.31 0 0 0 .37.49c.8-.53 3.31-1.31 4.69-2.28 1-.69 1.09-.17.75.86-.7 2.07-3.13 3.14-4.74 4.44a.338.338 0 0 0-.038.433.339.339 0 0 0 .418.117c.45-.25.9-.56 1.54-1 .64-.44 2.45-1.35 3.11-1a.428.428 0 0 1 .25.39c.1.72-.5 1.42-1.11 2.2-2.8 3.58-5.11 3.25-6.21 2.72ZM172.15 194c-8.7.05-139.63.38-146.44.46.08-2.85 0-20.87.05-32.25a25.726 25.726 0 0 0 3.74-3.48c.28-.39 1.15-1.74.47-2.8a1.369 1.369 0 0 0-1.42-.58 4.548 4.548 0 0 0 1.24-2.63c0-.31.09-1-.5-1.29a1.408 1.408 0 0 0-1.24.18c.09-.14.16-.28.24-.43.36-.71.86-2.34.46-2.94-.55-.81-1.95-.14-2.79.36.06-93.4.54-126.83.49-142.42 9.67 0 139.91-.53 146-.57-.08 5.55-.21 43.74-.21 43.74a12.789 12.789 0 0 0-4.68 1.76 2.22 2.22 0 0 0-.94.86 1.054 1.054 0 0 0-.087.87 1.057 1.057 0 0 0 .597.64c-.41.247-.753.59-1 1a1.632 1.632 0 0 0 1 1.93c-1.06.95-.85 2.62 1.29 2.93 1.303.183 2.628.125 3.91-.17.59 8.83-.28 129.18-.18 134.83Zm1.2-132.69c-.06-.73-.13-1.5-.22-2.32a11.286 11.286 0 0 0 1.86-.75c.42-.21.08-.84-.34-.63a10.86 10.86 0 0 1-5.09 1c-.65 0-1.74 0-2-.63s.37-1.1.8-1.22a8.62 8.62 0 0 0 5.48-1 .337.337 0 0 0 .165-.201.34.34 0 0 0-.485-.399 8.51 8.51 0 0 1-4.84.76c-1.18-.16-1.73-.49-1.71-1 0-.24 1-1 1.4-1.17 1.771.251 3.569.251 5.34 0 .45-.06.39-.75-.06-.69-1.34.17-5.64.06-6.05-.3a.317.317 0 0 1-.104-.112.317.317 0 0 1 0-.296.318.318 0 0 1 .104-.112c1.06-1.1 4.84-2.21 5.85-2.37a.302.302 0 1 0-.07-.6h-.17v-3.41c1.8 1.07 2.5 3.52 3.06 5.5 2.52 8.79 1.08 8.21 3.65 9.94.41.26.792.561 1.14.9-2.55 1.58-5.44 1-7.71-.86v-.03Z" fill="#1B2327"/><path d="M107.45 109.59a1.169 1.169 0 0 0-.228 2.317 1.167 1.167 0 0 0 1.398-1.147 1.167 1.167 0 0 0-1.17-1.17Zm-3.45 5.72a1.299 1.299 0 0 0-.253 2.575 1.305 1.305 0 0 0 1.334-.553A1.299 1.299 0 0 0 104 115.31Zm-3.1 5.02a.995.995 0 0 0-.924.617 1 1 0 1 0 .924-.617Z" fill="#1B2327"/></svg>